<svg width="521" height="364" viewBox="0 0 521 364" fill="none" xmlns="http://www.w3.org/2000/svg">
<path opacity="0.5" d="M259.557 207.706C265.561 207.706 270.428 205.02 270.428 201.707C270.428 198.394 265.561 195.708 259.557 195.708C253.553 195.708 248.685 198.394 248.685 201.707C248.685 205.02 253.553 207.706 259.557 207.706Z" fill="url(#paint0_linear_3_650)"/>
<path d="M245.299 169.138L245.711 169.852C248.277 174.306 249.147 179.514 248.164 184.542L246.313 194.008C245.671 197.291 247.219 200.613 250.165 202.276L250.194 202.292C252.65 203.679 255.671 203.675 258.124 202.281C261.058 200.613 262.596 197.299 261.956 194.024L260.115 184.611C259.124 179.541 260.017 174.29 262.631 169.814L263.026 169.137H245.299V169.138Z" fill="url(#paint1_linear_3_650)"/>
<path d="M263.025 169.138C263.025 169.961 261.665 170.691 259.555 171.156C258.061 171.486 256.191 171.682 254.162 171.682C252.133 171.682 250.261 171.486 248.767 171.156C246.658 170.691 245.299 169.961 245.299 169.138C245.299 167.733 249.266 166.593 254.162 166.593C259.056 166.593 263.025 167.733 263.025 169.138Z" fill="url(#paint2_linear_3_650)"/>
<path d="M259.557 171.133C259.557 171.14 259.557 171.149 259.555 171.156C258.061 171.486 256.191 171.682 254.162 171.682C252.133 171.682 250.261 171.486 248.767 171.156C248.765 171.149 248.765 171.14 248.765 171.133C248.765 170.276 251.181 169.584 254.162 169.584C257.141 169.584 259.557 170.276 259.557 171.133Z" fill="url(#paint3_linear_3_650)"/>
<path d="M256.15 170.88C256.15 170.88 261.093 107.455 252.396 106.103C243.698 104.751 253.446 170.848 253.446 170.848L256.15 170.88Z" fill="url(#paint4_linear_3_650)"/>
<path d="M250.933 170.88C250.933 170.88 234.344 123.168 242.639 120.796C250.933 118.425 254.641 170.88 254.641 170.88H250.933Z" fill="url(#paint5_linear_3_650)"/>
<path d="M256.15 170.88C256.15 170.88 266.893 139.984 261.522 138.449C256.151 136.913 253.749 170.88 253.749 170.88H256.15Z" fill="url(#paint6_linear_3_650)"/>
<path opacity="0.5" d="M488.98 325.808C488.98 325.808 485.163 347.88 470.145 346.093L422.434 318.544C416.628 315.436 417.498 309.913 423.119 306.491L428.984 302.921L488.98 325.808Z" fill="url(#paint7_linear_3_650)"/>
<path d="M440.295 284.58L440.296 278.794L425.025 287.474L430.158 290.391L440.295 284.58Z" fill="url(#paint8_linear_3_650)"/>
<path d="M425.025 298.307V287.474L475.927 316.406V333.765L430.766 308.097C427.213 306.077 425.025 302.346 425.025 298.307Z" fill="url(#paint9_linear_3_650)"/>
<path d="M485.637 328.246L475.927 333.765V316.406L491.197 307.726V318.765C491.197 322.676 489.078 326.29 485.637 328.246Z" fill="url(#paint10_linear_3_650)"/>
<path d="M491.197 307.726L440.296 278.794L440.295 284.58L486.107 310.62L491.197 307.726Z" fill="url(#paint11_linear_3_650)"/>
<path d="M430.158 290.391L440.295 284.58L486.107 310.62L475.927 316.406L430.158 290.391Z" fill="url(#paint12_linear_3_650)"/>
<path d="M440.296 292.831C440.296 292.831 444.393 281.531 452.952 285.036C461.511 288.541 450.719 297.233 462.378 291.346C474.036 285.458 471.297 310.184 471.297 310.184L440.296 292.831Z" fill="url(#paint13_linear_3_650)"/>
<path d="M436.537 290.727C436.537 290.727 436.981 275.868 443.871 276.618C450.76 277.368 441.313 300.51 450.928 290.624C460.542 280.738 457.832 301.933 467.435 299.334C477.039 296.735 483.346 281.844 483.943 297.898C484.539 313.951 475.979 312.805 475.979 312.805L436.537 290.727Z" fill="url(#paint14_linear_3_650)"/>
<path opacity="0.5" d="M359.15 253.374C359.15 253.374 355.332 275.446 340.314 273.659L292.604 246.11C286.798 243.002 287.668 237.479 293.289 234.057L299.153 230.487L359.15 253.374Z" fill="url(#paint15_linear_3_650)"/>
<path d="M310.464 212.146L310.465 206.36L295.194 215.04L300.327 217.957L310.464 212.146Z" fill="url(#paint16_linear_3_650)"/>
<path d="M295.194 225.873V215.04L346.096 243.973V261.331L300.935 235.663C297.383 233.643 295.194 229.912 295.194 225.873Z" fill="url(#paint17_linear_3_650)"/>
<path d="M355.806 255.812L346.097 261.331V243.973L361.367 235.292V246.331C361.367 250.243 359.247 253.856 355.806 255.812Z" fill="url(#paint18_linear_3_650)"/>
<path d="M361.367 235.292L310.465 206.36L310.464 212.146L356.276 238.186L361.367 235.292Z" fill="url(#paint19_linear_3_650)"/>
<path d="M300.327 217.957L310.464 212.146L356.276 238.186L346.096 243.973L300.327 217.957Z" fill="url(#paint20_linear_3_650)"/>
<path d="M310.465 220.397C310.465 220.397 314.562 209.097 323.121 212.602C331.681 216.107 320.889 224.799 332.548 218.912C344.206 213.024 341.467 237.75 341.467 237.75L310.465 220.397Z" fill="url(#paint21_linear_3_650)"/>
<path d="M306.707 218.293C306.707 218.293 307.151 203.434 314.04 204.184C320.929 204.934 311.483 228.076 321.098 218.19C330.712 208.304 328.002 229.499 337.605 226.9C347.208 224.301 353.516 209.41 354.112 225.464C354.708 241.517 346.148 240.371 346.148 240.371L306.707 218.293Z" fill="url(#paint22_linear_3_650)"/>
<path d="M142.989 177.163L191.32 204.635V232.104L142.988 204.635L142.989 177.163Z" fill="url(#paint23_linear_3_650)"/>
<path d="M239.652 177.163L191.32 204.635V232.104L239.653 204.635L239.652 177.163Z" fill="url(#paint24_linear_3_650)"/>
<path d="M142.989 177.163L191.32 149.691L239.652 177.163L191.32 204.635L142.989 177.163Z" fill="url(#paint25_linear_3_650)"/>
<path d="M159.702 177.163L191.32 159.192L222.938 177.163L191.32 195.135L159.702 177.163Z" fill="url(#paint26_linear_3_650)"/>
<path d="M166.11 180.805L191.32 166.476L216.53 180.805L191.32 195.135L166.11 180.805Z" fill="url(#paint27_linear_3_650)"/>
<path d="M149.54 149.691L191.32 173.439V197.184L149.539 173.438L149.54 149.691Z" fill="#0080FF"/>
<path d="M233.1 149.691L191.32 173.439V197.184L233.102 173.438L233.1 149.691Z" fill="#0080FF"/>
<path d="M142.989 149.691L191.32 177.163V191.34L142.988 163.87L142.989 149.691Z" fill="url(#paint28_linear_3_650)"/>
<path d="M239.652 149.691L191.32 177.163V191.34L239.653 163.87L239.652 149.691Z" fill="url(#paint29_linear_3_650)"/>
<path d="M142.989 149.692L191.32 122.22L239.652 149.692L191.32 177.163L142.989 149.692Z" fill="url(#paint30_linear_3_650)"/>
<path d="M159.702 149.692L191.32 131.72L222.938 149.692L191.32 167.663L159.702 149.692Z" fill="url(#paint31_linear_3_650)"/>
<path d="M166.11 153.334L191.32 139.005L216.53 153.334L191.32 167.663L166.11 153.334Z" fill="url(#paint32_linear_3_650)"/>
<path d="M149.54 122.22L191.32 145.968V169.713L149.539 145.967L149.54 122.22Z" fill="#0080FF"/>
<path d="M233.1 122.22L191.32 145.968V169.713L233.102 145.967L233.1 122.22Z" fill="#0080FF"/>
<path d="M142.989 122.22L191.32 149.692V163.868L142.988 136.398L142.989 122.22Z" fill="url(#paint33_linear_3_650)"/>
<path d="M239.652 122.22L191.32 149.692V163.868L239.653 136.398L239.652 122.22Z" fill="url(#paint34_linear_3_650)"/>
<path d="M142.989 122.22L191.32 94.7488L239.652 122.22L191.32 149.692L142.989 122.22Z" fill="url(#paint35_linear_3_650)"/>
<path d="M159.702 122.22L191.32 104.249L222.938 122.22L191.32 140.192L159.702 122.22Z" fill="url(#paint36_linear_3_650)"/>
<path d="M166.11 125.863L191.32 111.534L216.53 125.863L191.32 140.192L166.11 125.863Z" fill="url(#paint37_linear_3_650)"/>
<path d="M191.32 104.249V111.534L166.11 125.863L159.702 122.22L191.32 104.249Z" fill="url(#paint38_linear_3_650)"/>
<path d="M149.54 94.7488L191.32 118.497V142.241L149.539 118.495L149.54 94.7488Z" fill="#0080FF"/>
<path d="M233.1 94.7488L191.32 118.497V142.241L233.102 118.495L233.1 94.7488Z" fill="#0080FF"/>
<path d="M142.989 81.0148L191.32 108.486V135.954L142.988 108.484L142.989 81.0148Z" fill="url(#paint39_linear_3_650)"/>
<path d="M239.652 81.0148L191.32 108.486V135.954L239.653 108.484L239.652 81.0148Z" fill="url(#paint40_linear_3_650)"/>
<path d="M142.989 81.0148L191.32 53.5433L239.652 81.0148L191.32 108.486L142.989 81.0148Z" fill="url(#paint41_linear_3_650)"/>
<path d="M159.702 81.0148L191.32 63.0433L222.938 81.0148L191.32 98.9863L159.702 81.0148Z" fill="url(#paint42_linear_3_650)"/>
<path d="M166.11 84.6572L191.32 70.3281L216.53 84.6572L191.32 98.9863L166.11 84.6572Z" fill="#0080FF"/>
<path d="M191.32 63.0433V70.3281L166.11 84.6572L159.702 81.0148L191.32 63.0433Z" fill="url(#paint43_linear_3_650)"/>
<path d="M228.192 137.617L232.78 135.009L231.656 134.367L228.192 136.336V137.617Z" fill="url(#paint44_linear_3_650)"/>
<path d="M232.78 131.72V135.009L231.656 134.367V132.397L232.78 131.72Z" fill="url(#paint45_linear_3_650)"/>
<path d="M228.192 136.336V134.367L231.656 132.397V134.367L228.192 136.336Z" fill="url(#paint46_linear_3_650)"/>
<path d="M221.168 141.409L225.756 138.802L224.633 138.159L221.168 140.128V141.409Z" fill="url(#paint47_linear_3_650)"/>
<path d="M225.756 135.513V138.802L224.633 138.159V136.189L225.756 135.513Z" fill="url(#paint48_linear_3_650)"/>
<path d="M221.168 140.128V138.159L224.633 136.189V138.159L221.168 140.128Z" fill="url(#paint49_linear_3_650)"/>
<path d="M205.217 178.585L209.805 175.978L208.682 175.335L205.217 177.304V178.585Z" fill="url(#paint50_linear_3_650)"/>
<path d="M209.805 172.689V175.978L208.682 175.335V173.365L209.805 172.689Z" fill="url(#paint51_linear_3_650)"/>
<path d="M205.217 177.304V175.335L208.682 173.365V175.335L205.217 177.304Z" fill="url(#paint52_linear_3_650)"/>
<path d="M198.194 182.377L202.782 179.77L201.658 179.127L198.194 181.096V182.377Z" fill="url(#paint53_linear_3_650)"/>
<path d="M202.782 176.481V179.77L201.658 179.127V177.158L202.782 176.481Z" fill="url(#paint54_linear_3_650)"/>
<path d="M198.194 181.096V179.127L201.658 177.158V179.127L198.194 181.096Z" fill="url(#paint55_linear_3_650)"/>
<path d="M154.449 138.449L149.861 135.841L150.984 135.199L154.449 137.168V138.449Z" fill="url(#paint56_linear_3_650)"/>
<path d="M149.861 132.552V135.841L150.984 135.199V133.229L149.861 132.552Z" fill="url(#paint57_linear_3_650)"/>
<path d="M154.449 137.168V135.199L150.984 133.229V135.199L154.449 137.168Z" fill="url(#paint58_linear_3_650)"/>
<path d="M161.472 142.241L156.884 139.634L158.008 138.991L161.472 140.96V142.241Z" fill="url(#paint59_linear_3_650)"/>
<path d="M156.884 136.345V139.634L158.008 138.991V137.022L156.884 136.345Z" fill="url(#paint60_linear_3_650)"/>
<path d="M161.472 140.96V138.991L158.008 137.022V138.991L161.472 140.96Z" fill="url(#paint61_linear_3_650)"/>
<path d="M177.424 179.417L172.836 176.81L173.959 176.167L177.424 178.136V179.417Z" fill="url(#paint62_linear_3_650)"/>
<path d="M172.836 173.521V176.81L173.959 176.167V174.197L172.836 173.521Z" fill="url(#paint63_linear_3_650)"/>
<path d="M177.424 178.136V176.167L173.959 174.197V176.167L177.424 178.136Z" fill="url(#paint64_linear_3_650)"/>
<path d="M184.447 183.21L179.859 180.602L180.982 179.959L184.447 181.928V183.21Z" fill="url(#paint65_linear_3_650)"/>
<path d="M179.859 177.313V180.602L180.982 179.959V177.99L179.859 177.313Z" fill="url(#paint66_linear_3_650)"/>
<path d="M184.447 181.928V179.959L180.982 177.99V179.959L184.447 181.928Z" fill="url(#paint67_linear_3_650)"/>
<path d="M301.23 0L521 124.913L520.998 297.875L301.23 172.96V0Z" fill="white"/>
<path d="M398.222 176.741L431.812 195.831V262.307C431.812 268.741 428.325 274.687 422.665 277.904L394.416 293.943L360.433 274.627L388.739 258.696C394.416 255.502 397.929 249.568 397.955 243.131L398.222 176.741Z" fill="url(#paint68_linear_3_650)"/>
<path d="M394.64 175.397L428.23 194.486V260.962C428.23 267.397 424.743 273.342 419.083 276.559L394.416 290.577L360.433 271.261L385.157 257.351C390.833 254.157 394.347 248.223 394.373 241.786L394.64 175.397Z" fill="url(#paint69_linear_3_650)"/>
<path d="M360.433 271.261V274.627L394.416 293.942V290.577L360.433 271.261Z" fill="url(#paint70_linear_3_650)"/>
<path d="M294.607 3.93259L514.377 128.845L514.374 301.807L294.607 176.893V3.93259Z" fill="url(#paint71_linear_3_650)"/>
<path d="M294.607 3.93259L514.377 128.845L514.376 282.491L294.608 157.577L294.607 3.93259Z" fill="#1D1D1B"/>
<path d="M298.222 12.2784L509.043 132.105L509.041 273.227L298.222 153.399V12.2784Z" fill="#0080FF"/>
<path d="M514.374 301.807L520.998 297.875L521 124.913L514.377 128.845L514.374 301.807Z" fill="url(#paint72_linear_3_650)"/>
<path d="M294.607 3.9326L301.23 0L521 124.913L514.377 128.845L294.607 3.9326Z" fill="url(#paint73_linear_3_650)"/>
<path d="M391.612 222.828C391.612 220.007 393.641 218.853 396.122 220.263C398.604 221.673 400.633 225.134 400.633 227.955C400.633 230.775 398.604 231.93 396.122 230.519C393.642 229.109 391.612 225.648 391.612 222.828Z" fill="url(#paint74_linear_3_650)"/>
<path fill-rule="evenodd" clip-rule="evenodd" d="M366.592 145.169C366.598 147.31 367.11 149.573 367.912 151.415C368.229 152.141 368.591 152.8 368.986 153.361C369.429 154.002 369.915 154.512 370.424 154.853C370.687 155.029 370.945 155.15 371.193 155.219C372.016 155.451 372.741 155.12 373.274 154.337L397.155 196.445C397.057 197.013 397.004 197.653 397.008 198.342C397.021 202.281 398.742 206.625 400.843 208.027C401.107 208.203 401.364 208.324 401.612 208.394C403.344 208.882 404.641 206.873 404.628 203.427C404.626 202.714 404.567 201.981 404.461 201.259L428.358 191.433C429.05 193.172 430 194.599 431.046 195.295C431.307 195.47 431.563 195.591 431.808 195.66C431.998 195.714 432.182 195.737 432.36 195.731C432.759 195.726 433.125 195.569 433.447 195.29C434.299 194.554 434.84 192.924 434.833 190.696C434.821 187.159 433.432 183.293 431.627 181.528L431.513 146.777C433.388 147.311 434.684 145.299 434.672 141.853C434.665 139.625 434.112 137.268 433.252 135.385C432.928 134.678 432.561 134.038 432.161 133.492C431.748 132.933 431.305 132.483 430.84 132.172C430.576 131.996 430.319 131.875 430.071 131.804C429.228 131.567 428.489 131.921 427.955 132.743L404.021 91.0221C404.175 90.3453 404.258 89.5587 404.256 88.6792C404.243 84.7405 402.523 80.3963 400.424 78.9953C400.16 78.8192 399.903 78.6978 399.654 78.6281C397.922 78.1401 396.623 80.1485 396.634 83.5935C396.638 84.4738 396.726 85.3741 396.885 86.2601L373.121 96.154C372.418 94.1565 371.376 92.4954 370.218 91.7227C369.956 91.5474 369.701 91.4271 369.455 91.3577C369.222 91.2922 368.997 91.2718 368.782 91.2938C368.39 91.3323 368.03 91.5077 367.718 91.8179C366.924 92.5945 366.427 94.185 366.433 96.3221C366.445 99.8627 367.832 103.728 369.639 105.494L369.753 140.245C367.88 139.712 366.58 141.724 366.592 145.169ZM372.799 100.57C372.801 101.723 372.59 102.633 372.23 103.217C371.966 103.652 371.621 103.904 371.23 103.946C371.116 103.959 371.001 103.954 370.887 103.932C370.851 103.925 370.816 103.917 370.78 103.907C370.612 103.859 370.437 103.776 370.259 103.655C370.043 103.511 369.832 103.324 369.633 103.094C368.523 101.83 367.695 99.3987 367.688 97.1607C367.683 95.8993 367.94 94.9234 368.369 94.355C368.65 93.9669 369.011 93.7673 369.417 93.7815C369.513 93.785 369.612 93.8008 369.714 93.8293C369.88 93.8763 370.052 93.9573 370.228 94.0756C370.918 94.5365 371.547 95.4715 372.009 96.6161C372.313 97.3661 372.546 98.2001 372.677 99.0572C372.756 99.5613 372.798 100.075 372.799 100.57ZM388.636 118.494C386.9 115.544 385.293 112.291 383.846 108.827C381.275 113.455 379.731 120.294 379.66 128.785L386.906 133.62C386.941 127.895 387.554 122.813 388.636 118.494ZM384.469 107.775C387.407 103.163 391.49 101.168 396.146 102.48C396.883 102.688 397.633 102.978 398.395 103.353C394.306 105.34 391.022 110.095 389.03 117.027C387.378 114.201 385.847 111.087 384.469 107.775ZM399.988 129.875L399.907 104.887C395.507 106.485 391.981 111.261 389.919 118.503C392.962 123.403 396.377 127.345 399.988 129.875ZM399.994 131.755L400.029 142.374L387.909 134.286C387.944 128.88 388.517 124.071 389.528 119.97C392.694 125.047 396.244 129.131 399.994 131.755ZM400.07 154.673L400.035 144.051L387.914 135.964C387.986 141.442 388.591 147.037 389.635 152.508C391.494 151.999 393.49 152.015 395.587 152.606C397.037 153.015 398.537 153.699 400.07 154.673ZM400.076 156.55L400.156 181.538C395.726 174.049 392.156 164.536 390.036 154.507C391.835 154.001 393.77 154.011 395.802 154.583C397.185 154.973 398.614 155.624 400.076 156.55ZM384.635 157.997C388.087 167.906 393.058 176.353 398.651 181.062C394.526 173.587 391.198 164.425 389.152 154.798C387.512 155.43 385.997 156.505 384.635 157.997ZM383.999 156.105C381.391 148.022 379.792 139.085 379.666 130.462L386.91 135.296C386.984 141.09 387.633 147.015 388.747 152.797C387.025 153.444 385.429 154.559 383.999 156.105ZM379.035 135.338C378.866 133.223 378.771 131.113 378.764 129.024C378.757 126.868 378.844 124.816 379.009 122.865C377.293 119.45 375.664 115.808 374.141 111.961C373.411 110.118 372.714 108.25 372.052 106.361C371.735 106.473 371.389 106.477 370.893 106.332L371.007 141.083C371.42 141.49 371.812 142.002 372.169 142.601C372.822 141.591 373.509 140.642 374.229 139.769C375.731 137.948 377.338 136.47 379.035 135.338ZM403.002 87.8417C403.003 88.2919 402.971 88.7124 402.91 89.0827C402.795 89.7807 402.577 90.3249 402.286 90.6964C401.939 91.1381 401.487 91.3165 400.979 91.1735C400.812 91.1265 400.64 91.0448 400.462 90.9265C399.745 90.4474 399.092 89.4569 398.628 88.2568C398.332 87.4949 398.109 86.6536 397.99 85.7999C397.926 85.3421 397.892 84.8827 397.889 84.4317C397.882 82.1182 398.751 80.7732 399.914 81.1008C400.081 81.1478 400.254 81.2295 400.432 81.3478C401.841 82.2882 402.992 85.1983 403.002 87.8417ZM425.996 144.901C426.706 144.045 427.38 143.114 428.019 142.12C427.424 140.468 427.059 138.576 427.053 136.771C427.051 135.843 427.144 135.024 427.312 134.321L403.4 92.6369C402.858 93.5075 402.101 93.8879 401.235 93.6439C400.988 93.5742 400.732 93.4535 400.469 93.2786C399.286 92.4885 398.226 90.7673 397.52 88.7135L373.776 98.6028C373.953 99.5351 374.049 100.479 374.053 101.408C374.059 103.293 373.676 104.742 373.042 105.592C373.67 107.378 374.329 109.149 375.021 110.891C376.352 114.257 377.773 117.452 379.261 120.479C379.944 115.063 381.308 110.576 383.195 107.222C383.398 106.857 383.608 106.511 383.823 106.174C386.886 101.407 391.13 99.3493 395.967 100.712C396.737 100.929 397.521 101.232 398.319 101.625C398.924 101.927 399.537 102.276 400.158 102.68C400.208 102.711 400.26 102.745 400.313 102.78L400.346 102.802C400.372 102.82 400.398 102.838 400.424 102.856L400.425 102.856C400.463 102.882 400.501 102.909 400.539 102.936C401.158 103.359 401.774 103.827 402.379 104.333C408.182 109.214 413.344 117.954 416.943 128.224C417.163 128.847 417.378 129.478 417.582 130.114C419.533 136.092 420.951 142.522 421.667 148.971C423.191 147.903 424.641 146.55 425.996 144.901ZM416.94 130.861C419.562 138.961 421.167 147.921 421.293 156.56L414.047 151.73C413.973 145.918 413.324 139.976 412.202 134.177C413.924 133.531 415.515 132.411 416.94 130.861ZM402.311 105.962C406.428 113.421 409.751 122.571 411.797 132.177C413.432 131.544 414.945 130.461 416.304 128.968C412.855 119.084 407.892 110.663 402.311 105.962ZM421.299 158.241C421.229 166.749 419.674 173.604 417.093 178.231C415.651 174.769 414.047 171.516 412.316 168.561C413.403 164.24 414.018 159.142 414.053 153.406L421.299 158.241ZM404.804 184.542C409.453 185.852 413.531 183.869 416.467 179.277C415.094 175.965 413.566 172.856 411.92 170.028C409.928 176.943 406.649 181.685 402.562 183.673C403.322 184.047 404.07 184.335 404.804 184.542ZM401.052 182.136L400.972 157.149C404.577 159.687 407.992 163.643 411.03 168.545C408.968 175.776 405.445 180.539 401.052 182.136ZM400.93 144.649L400.966 155.271C404.714 157.905 408.261 161.999 411.421 167.08C412.44 162.975 413.013 158.156 413.051 152.736L400.93 144.649ZM400.925 142.972L400.892 132.351C402.407 133.307 403.889 133.98 405.323 134.385C407.434 134.979 409.443 134.992 411.313 134.471C412.363 139.954 412.971 145.563 413.044 151.06L400.925 142.972ZM400.803 105.485L400.886 130.474C402.332 131.385 403.746 132.027 405.116 132.413C407.16 132.989 409.106 132.995 410.914 132.479C408.793 122.46 405.226 112.961 400.803 105.485ZM431.507 144.377C431.471 144.37 431.434 144.361 431.398 144.351C431.229 144.303 431.056 144.221 430.878 144.103C430.662 143.959 430.454 143.769 430.25 143.538C430.094 143.363 429.944 143.158 429.801 142.934C429.414 142.344 429.077 141.605 428.824 140.807C428.502 139.796 428.312 138.676 428.308 137.609C428.307 137.11 428.346 136.654 428.419 136.252C428.548 135.569 428.775 135.041 429.072 134.695C429.414 134.296 429.849 134.138 430.334 134.275C430.5 134.322 430.672 134.403 430.848 134.52C431.087 134.681 431.316 134.895 431.535 135.157C431.95 135.651 432.325 136.311 432.626 137.053C433.114 138.246 433.416 139.667 433.419 141.018C433.426 143.256 432.612 144.591 431.507 144.377ZM428.964 183.928C428.648 184.516 428.464 185.378 428.468 186.449C428.47 187.152 428.552 187.871 428.702 188.57C428.881 189.428 429.16 190.25 429.502 190.959C429.93 191.848 430.463 192.559 431.04 192.947C431.214 193.062 431.386 193.143 431.552 193.19C431.61 193.206 431.669 193.219 431.726 193.227C432.138 193.287 432.511 193.126 432.808 192.781C433.29 192.234 433.583 191.209 433.577 189.858C433.57 187.627 432.745 185.197 431.635 183.925C431.434 183.699 431.225 183.509 431.009 183.364C430.829 183.245 430.656 183.164 430.488 183.116C430.452 183.106 430.416 183.097 430.381 183.09C430.223 183.057 430.073 183.059 429.931 183.092C429.547 183.171 429.215 183.462 428.964 183.928ZM426.98 174.965C425.419 171.02 423.744 167.291 421.978 163.799C422.125 161.955 422.202 160.025 422.195 158.002C422.188 155.912 422.093 153.802 421.924 151.687C423.681 150.539 425.342 149.031 426.89 147.153C427.628 146.26 428.33 145.291 428.996 144.251C429.381 144.923 429.806 145.497 430.26 145.939L430.374 180.694C429.835 180.537 429.458 180.553 429.113 180.692C428.438 178.761 427.726 176.847 426.98 174.965ZM398.292 198.455C398.272 198.685 398.262 198.924 398.263 199.18C398.27 201.824 399.424 204.737 400.833 205.677C401.01 205.795 401.183 205.877 401.35 205.924C402.511 206.251 403.383 204.904 403.374 202.593C403.373 202.305 403.36 202.018 403.331 201.726C403.254 200.87 403.067 200.011 402.803 199.224C402.331 197.817 401.609 196.634 400.803 196.095C400.625 195.977 400.452 195.895 400.286 195.848C399.677 195.677 399.15 195.967 398.786 196.614C398.533 197.062 398.356 197.687 398.292 198.455ZM373.169 144.7C373.79 143.747 374.441 142.854 375.123 142.025C376.434 140.434 377.827 139.116 379.294 138.067C380.009 144.487 381.418 150.89 383.354 156.844C383.564 157.481 383.776 158.112 383.993 158.737C387.595 169.031 392.767 177.799 398.58 182.69C399.186 183.196 399.801 183.667 400.42 184.091L400.611 184.217C400.655 184.247 400.7 184.277 400.745 184.306L400.747 184.308L400.801 184.343C401.422 184.747 402.035 185.096 402.64 185.398C403.437 185.79 404.222 186.094 404.99 186.31C409.817 187.67 414.053 185.626 417.113 180.881C417.331 180.548 417.541 180.199 417.744 179.837C419.681 176.413 421.072 171.798 421.743 166.212C423.273 169.308 424.733 172.586 426.098 176.035C426.815 177.847 427.497 179.68 428.146 181.534C427.561 182.397 427.207 183.807 427.211 185.611C427.216 186.741 427.36 187.906 427.614 189.023L403.895 198.781C403.197 196.518 402.067 194.593 400.795 193.747C400.531 193.571 400.273 193.449 400.025 193.379C399.063 193.109 398.237 193.606 397.695 194.687L373.931 152.786C374.115 152.073 374.213 151.217 374.211 150.255C374.205 148.37 373.81 146.4 373.169 144.7ZM369.76 142.646C368.655 142.435 367.839 143.77 367.846 146.007C367.851 147.269 368.118 148.593 368.549 149.739C368.838 150.506 369.2 151.186 369.607 151.716C369.862 152.047 370.135 152.311 370.417 152.501C370.593 152.619 370.764 152.7 370.93 152.747C371.399 152.879 371.82 152.737 372.157 152.369C372.461 152.039 372.696 151.517 372.83 150.845C372.913 150.425 372.958 149.943 372.957 149.417C372.952 148.266 372.734 147.066 372.368 146.001C372.1 145.209 371.753 144.495 371.358 143.927C371.246 143.764 371.132 143.617 371.015 143.484C370.813 143.254 370.602 143.063 370.386 142.919C370.21 142.799 370.038 142.719 369.873 142.673C369.835 142.662 369.798 142.653 369.76 142.646Z" fill="url(#paint75_linear_3_650)"/>
<path opacity="0.2" d="M427.28 232.987L368.738 46.0674L514.377 128.845L514.376 282.491L427.28 232.987Z" fill="url(#paint76_linear_3_650)"/>
<path opacity="0.2" d="M356.226 38.956L383.46 208.08L349.324 188.677L319.759 18.2289L356.226 38.956Z" fill="url(#paint77_linear_3_650)"/>
<path opacity="0.5" d="M279.725 235.575C287.944 235.575 294.606 233.835 294.606 231.69C294.606 229.544 287.944 227.805 279.725 227.805C271.507 227.805 264.844 229.544 264.844 231.69C264.844 233.835 271.507 235.575 279.725 235.575Z" fill="url(#paint78_linear_3_650)"/>
<path d="M282.58 231.69L278.059 228.927L278.538 223.945L282.12 186.829L278.125 185.465L278.013 189.26L276.99 224.258L276.848 229.044L276.808 230.414L282.58 231.69Z" fill="url(#paint79_linear_3_650)"/>
<path d="M276.99 224.258L278.538 223.945L279.731 223.706L282.81 185.488L278.013 189.26L276.99 224.258Z" fill="#1D1D1B"/>
<path d="M276.848 229.044L276.808 230.414L282.58 231.69L278.059 228.927L276.848 229.044Z" fill="#1D1D1B"/>
<path d="M276.577 232.744L272.057 229.982L272.536 225L276.118 187.884L272.123 186.52L272.011 190.315L270.987 225.313L270.846 230.099L270.806 231.469L276.577 232.744Z" fill="url(#paint80_linear_3_650)"/>
<path d="M270.987 225.312L272.536 225L273.728 224.761L276.808 186.542L272.011 190.314L270.987 225.312Z" fill="#1D1D1B"/>
<path d="M270.846 230.099L270.806 231.469L276.577 232.744L272.057 229.982L270.846 230.099Z" fill="#1D1D1B"/>
<path d="M287.564 172.64L285.323 174.841L279.771 171.414L284.438 164.817L287.564 172.64Z" fill="url(#paint81_linear_3_650)"/>
<path d="M280.081 163.156L276.577 163.777C273.65 164.295 271.515 166.797 271.501 169.725L270.35 192.164C274.201 194.037 278.842 193.222 281.797 190.153L285.27 186.544L285.355 167.803C285.552 164.933 282.956 162.646 280.081 163.156Z" fill="url(#paint82_linear_3_650)"/>
<path d="M280.703 171.989L277.086 183.929L285.27 186.544L289.247 175.018L280.703 171.989Z" fill="url(#paint83_linear_3_650)"/>
<path d="M277.876 161.643C277.876 161.643 278.009 163.881 278.35 164.118C278.69 164.355 280.457 166.212 279.553 162.51C278.65 158.808 277.876 161.643 277.876 161.643Z" fill="url(#paint84_linear_3_650)"/>
<path d="M279.823 163.186C281.044 163.186 282.033 162.212 282.033 161.01C282.033 159.809 281.044 158.834 279.823 158.834C278.603 158.834 277.613 159.809 277.613 161.01C277.613 162.212 278.603 163.186 279.823 163.186Z" fill="url(#paint85_linear_3_650)"/>
<path d="M279.815 181.909L280.326 183.193L282.026 179.467L272.809 179.316L274.855 173.072L272.876 165.934C270.904 168.13 269.398 170.668 268.766 172.594C263.408 188.921 273.543 183.502 277.599 181.154C278.416 180.681 279.468 181.04 279.815 181.909Z" fill="url(#paint86_linear_3_650)"/>
<path d="M268.567 171.921L273.941 175.736L275.528 171.113C275.613 170.75 275.731 170.395 275.838 170.037C276.325 168.416 274.655 165.603 272.875 165.934C270.904 168.13 269.504 170.12 268.567 171.921Z" fill="url(#paint87_linear_3_650)"/>
<path d="M284.104 156.758C284.104 158.561 283.312 160.264 282.008 161.338C282.03 161.139 282.033 161.021 282.024 160.827L280.436 160.86C280.436 160.86 280.166 161.456 279.824 161.421C279.479 161.386 279.421 162.01 279.421 162.01C279.421 162.01 278.901 160.514 278.685 161.613C278.572 162.184 278.959 162.521 278.959 162.521C278.959 162.521 278.693 162.885 278.157 162.885C274.871 162.885 272.211 159.989 272.211 156.758C272.211 153.523 274.871 150.904 278.157 150.904C281.439 150.904 284.104 153.523 284.104 156.758Z" fill="#1D1D1B"/>
<path opacity="0.4" d="M372.144 289.13C367.789 286.654 360.663 286.654 356.308 289.13C352.591 291.242 352.058 294.499 354.684 296.948L349.111 300.115L233.07 234.532C235.619 232.09 235.064 228.871 231.381 226.777C227.026 224.301 219.9 224.301 215.545 226.777C211.189 229.253 211.189 233.304 215.545 235.779C218.719 237.583 223.361 238.066 227.332 237.241L296.238 276.184L158.952 354.185L89.794 314.639C91.5756 312.308 90.8071 309.485 87.4682 307.587C83.1143 305.112 75.988 305.112 71.6325 307.587C67.277 310.063 67.277 314.114 71.6325 316.59C75.1678 318.599 80.5282 318.977 84.7503 317.725L158.943 360.15L301.498 279.157L349.119 306.07L360.476 299.617C364.422 300.408 369.003 299.918 372.144 298.131C376.498 295.656 376.498 291.605 372.144 289.13Z" fill="#0080FF"/>
<path opacity="0.4" d="M111.092 246.326L177.104 208.804L177.102 152.523L111.092 190.043V246.326Z" fill="url(#paint88_linear_3_650)"/>
<path opacity="0.4" d="M177.104 143.142L177.102 152.523L111.092 190.043V180.663L177.104 143.142Z" fill="url(#paint89_linear_3_650)"/>
<g opacity="0.4">
<path d="M118.019 227.408C118.075 227.408 118.131 227.394 118.183 227.365L126.165 222.828C126.323 222.739 126.377 222.54 126.286 222.384C126.195 222.228 125.993 222.175 125.835 222.265L117.853 226.801C117.695 226.891 117.641 227.09 117.732 227.245C117.794 227.35 117.905 227.408 118.019 227.408Z" fill="url(#paint90_linear_3_650)"/>
</g>
<g opacity="0.4">
<path d="M118.019 229.359C118.075 229.359 118.131 229.345 118.183 229.316L126.165 224.78C126.323 224.69 126.377 224.491 126.286 224.335C126.195 224.18 125.993 224.126 125.835 224.216L117.853 228.752C117.695 228.842 117.641 229.041 117.732 229.197C117.794 229.301 117.905 229.359 118.019 229.359Z" fill="url(#paint91_linear_3_650)"/>
</g>
<g opacity="0.4">
<path d="M118.019 231.31C118.075 231.31 118.131 231.296 118.183 231.267L126.165 226.731C126.323 226.641 126.377 226.442 126.286 226.286C126.195 226.131 125.993 226.077 125.835 226.167L117.853 230.703C117.695 230.793 117.641 230.992 117.732 231.148C117.794 231.252 117.905 231.31 118.019 231.31Z" fill="url(#paint92_linear_3_650)"/>
</g>
<g opacity="0.4">
<path d="M118.019 233.262C118.075 233.262 118.131 233.248 118.183 233.218L126.165 228.682C126.323 228.592 126.377 228.393 126.286 228.237C126.195 228.082 125.993 228.029 125.835 228.118L117.853 232.655C117.695 232.744 117.641 232.943 117.732 233.099C117.794 233.203 117.905 233.262 118.019 233.262Z" fill="url(#paint93_linear_3_650)"/>
</g>
<g opacity="0.4">
<path d="M120.883 233.565C120.939 233.565 120.995 233.551 121.047 233.522L126.165 230.633C126.323 230.543 126.377 230.344 126.286 230.189C126.195 230.033 125.993 229.98 125.835 230.07L120.717 232.958C120.559 233.048 120.505 233.247 120.596 233.403C120.658 233.507 120.768 233.565 120.883 233.565Z" fill="url(#paint94_linear_3_650)"/>
</g>
<path opacity="0.4" d="M126.33 217.473C126.33 217.103 126.064 216.952 125.739 217.137L120.319 220.218C119.994 220.403 119.728 220.857 119.728 221.226V223.634C119.728 224.004 119.994 224.155 120.319 223.97L125.738 220.89C126.064 220.705 126.33 220.251 126.33 219.881V217.473H126.33Z" fill="url(#paint95_linear_3_650)"/>
<g opacity="0.7">
<path d="M149.101 212.727C149.89 212.727 150.755 212.559 151.712 212.174C156.529 210.234 157.904 203.081 159.233 196.164C160.307 190.575 161.417 184.797 164.305 183.646C165.093 183.332 165.759 183.378 166.404 183.79C170.045 186.118 171.252 198.461 171.41 203.021C171.426 203.46 171.799 203.805 172.247 203.79C172.695 203.775 173.044 203.406 173.029 202.966C172.968 201.203 172.288 185.651 167.286 182.453C166.205 181.762 164.964 181.663 163.697 182.169C159.991 183.646 158.85 189.582 157.642 195.868C156.393 202.366 155.101 209.087 151.099 210.699C147.543 212.131 145.791 209.742 143.762 206.975C141.729 204.203 139.199 200.752 134.467 203.532C133.386 204.167 132.443 204.363 131.585 204.132C129.653 203.611 128.183 200.953 126.762 198.383C125.207 195.571 123.739 192.915 121.427 192.325C120.32 192.042 119.143 192.283 117.926 193.041C117.548 193.277 117.436 193.769 117.675 194.141C117.914 194.514 118.414 194.624 118.792 194.389C119.627 193.869 120.355 193.698 121.02 193.868C122.652 194.285 124.018 196.755 125.339 199.145C126.923 202.009 128.56 204.97 131.157 205.67C132.445 206.017 133.838 205.758 135.297 204.901C138.593 202.965 140.089 204.691 142.449 207.909C144.058 210.103 145.983 212.727 149.101 212.727Z" fill="#1A1A1B"/>
</g>
<path opacity="0.4" d="M171.038 179.304C171.038 175.139 168.041 173.435 164.377 175.517C160.714 177.598 157.717 182.709 157.717 186.873C157.717 191.038 160.714 192.742 164.377 190.66C168.04 188.579 171.038 183.468 171.038 179.304Z" fill="#1A1A1B"/>
<path opacity="0.6" d="M168.104 180.971C168.104 178.641 166.427 177.687 164.377 178.852C162.328 180.017 160.651 182.876 160.651 185.206C160.651 187.536 162.328 188.49 164.377 187.325C166.427 186.16 168.104 183.301 168.104 180.971Z" fill="#1A1A1B"/>
<path d="M166.197 182.055C166.197 180.916 165.378 180.451 164.377 181.02C163.376 181.589 162.557 182.985 162.557 184.123C162.557 185.261 163.376 185.727 164.377 185.158C165.378 184.589 166.197 183.192 166.197 182.055Z" fill="url(#paint96_linear_3_650)"/>
<path d="M190.566 208.867L178.815 201.536L170.137 187.032L165.839 183.291L165.964 184.849C166.104 186.606 167.731 187.875 169.501 187.608L169.723 187.575L176.065 202.288L188.549 211.42L190.566 208.867Z" fill="url(#paint97_linear_3_650)"/>
<path opacity="0.5" d="M186.152 280.3C195.279 280.3 202.677 278.369 202.677 275.986C202.677 273.603 195.279 271.672 186.152 271.672C177.026 271.672 169.627 273.603 169.627 275.986C169.627 278.369 177.026 280.3 186.152 280.3Z" fill="url(#paint98_linear_3_650)"/>
<path d="M182.349 238.47L182.775 275.986H179.021L183.869 277.839L185.469 233.031L182.349 238.47Z" fill="url(#paint99_linear_3_650)"/>
<path d="M185.779 237.412L186.027 254.756L191.832 273.591L189.318 277.644L193.131 274.666L188.16 254.074L189.67 239.688L185.779 237.412Z" fill="url(#paint100_linear_3_650)"/>
<path d="M176.447 237.412L175.627 240.651C175.403 241.536 175.603 242.473 176.168 243.194L177.275 242.835L177.737 241.052L176.447 237.412Z" fill="url(#paint101_linear_3_650)"/>
<path d="M183.227 203.264L181.283 208.5C181.639 210.382 181.73 221.898 181.229 223.747L179.166 231.358C179.166 231.358 180.064 244.55 181.649 244.568C181.688 244.568 181.728 244.569 181.767 244.569C190.265 244.632 196.225 236.165 193.141 228.369C192.449 226.62 191.66 225.095 190.766 224.015C187.956 220.618 189.543 216.082 191.091 213.204C192.998 209.66 191.224 205.165 187.295 204.107C187.139 204.065 186.98 204.028 186.82 203.995L183.227 203.264Z" fill="url(#paint102_linear_3_650)"/>
<path d="M178.628 210.153L180.305 222.198L175.666 240.533L182.277 223.503L182.298 209.154L181.283 208.5C180.044 207.703 178.428 208.71 178.628 210.153Z" fill="url(#paint103_linear_3_650)"/>
<path d="M178.78 211.238L182.29 214.801L182.298 209.154L183.227 203.264L180.38 205.045C179 205.909 178.257 207.485 178.479 209.081L178.78 211.238Z" fill="url(#paint104_linear_3_650)"/>
<path d="M183.776 202.034C185.088 202.034 186.152 200.986 186.152 199.695C186.152 198.403 185.088 197.356 183.776 197.356C182.464 197.356 181.4 198.403 181.4 199.695C181.4 200.986 182.464 202.034 183.776 202.034Z" fill="url(#paint105_linear_3_650)"/>
<path d="M181.705 198.099C182.722 199.078 183.362 200.401 183.191 201.791C183.105 202.48 182.876 203.197 182.394 203.835C180.805 205.939 179.845 209.544 182.228 210.148C184.61 210.752 185.935 208.601 187.327 210.216C188.719 211.83 192.293 209.457 190.034 205.524C187.774 201.592 187.465 195.51 183.391 196.449C181.152 196.966 181.204 197.618 181.705 198.099Z" fill="#1D1D1B"/>
<path d="M179.021 275.986H182.775L183.908 276.747L183.869 277.839L179.021 275.986Z" fill="#1D1D1B"/>
<path d="M192.893 273.679L191.832 273.591L189.318 277.644L193.131 274.666L192.893 273.679Z" fill="#1D1D1B"/>
<path d="M0.000782941 257.164L48.3325 284.635V312.105L0 284.635L0.000782941 257.164Z" fill="url(#paint106_linear_3_650)"/>
<path d="M96.6643 257.164L48.3325 284.635V312.105L96.6654 284.635L96.6643 257.164Z" fill="url(#paint107_linear_3_650)"/>
<path d="M0.000793457 257.164L48.3325 229.693L96.6643 257.164L48.3325 284.635L0.000793457 257.164Z" fill="url(#paint108_linear_3_650)"/>
<path d="M16.7146 257.164L48.3325 239.193L79.9504 257.164L48.3325 275.135L16.7146 257.164Z" fill="url(#paint109_linear_3_650)"/>
<path d="M23.123 260.806L48.3325 246.477L73.5424 260.806L48.3325 275.135L23.123 260.806Z" fill="url(#paint110_linear_3_650)"/>
<path d="M6.55242 229.693L48.3325 253.44V277.185L6.55164 253.439L6.55242 229.693Z" fill="#0080FF"/>
<path d="M90.113 229.693L48.3325 253.44V277.185L90.1138 253.439L90.113 229.693Z" fill="#0080FF"/>
<path d="M0.000782941 229.693L48.3325 257.164V271.341L0 243.871L0.000782941 229.693Z" fill="url(#paint111_linear_3_650)"/>
<path d="M96.6643 229.693L48.3325 257.164V271.341L96.6654 243.871L96.6643 229.693Z" fill="url(#paint112_linear_3_650)"/>
<path d="M0.000793457 229.693L48.3325 202.221L96.6643 229.693L48.3325 257.164L0.000793457 229.693Z" fill="url(#paint113_linear_3_650)"/>
<path d="M16.7146 229.693L48.3325 211.721L79.9504 229.693L48.3325 247.664L16.7146 229.693Z" fill="url(#paint114_linear_3_650)"/>
<path d="M23.123 233.335L48.3325 219.006L73.5424 233.335L48.3325 247.664L23.123 233.335Z" fill="url(#paint115_linear_3_650)"/>
<path d="M6.55242 202.221L48.3325 225.969V249.714L6.55164 225.967L6.55242 202.221Z" fill="#0080FF"/>
<path d="M90.113 202.221L48.3325 225.969V249.714L90.1138 225.967L90.113 202.221Z" fill="#0080FF"/>
<path d="M0.000782941 202.221L48.3325 229.693V243.869L0 216.4L0.000782941 202.221Z" fill="url(#paint116_linear_3_650)"/>
<path d="M96.6643 202.221L48.3325 229.693V243.869L96.6654 216.4L96.6643 202.221Z" fill="url(#paint117_linear_3_650)"/>
<path d="M0.000793457 202.221L48.3325 174.75L96.6643 202.221L48.3325 229.693L0.000793457 202.221Z" fill="url(#paint118_linear_3_650)"/>
<path d="M16.7146 202.221L48.3325 184.25L79.9504 202.221L48.3325 220.193L16.7146 202.221Z" fill="url(#paint119_linear_3_650)"/>
<path d="M23.123 205.864L48.3325 191.535L73.5424 205.864L48.3325 220.193L23.123 205.864Z" fill="url(#paint120_linear_3_650)"/>
<path d="M48.3325 184.25V191.535L23.123 205.864L16.7146 202.221L48.3325 184.25Z" fill="url(#paint121_linear_3_650)"/>
<path d="M6.55242 174.75L48.3325 198.498V222.242L6.55164 198.496L6.55242 174.75Z" fill="#0080FF"/>
<path d="M90.113 174.75L48.3325 198.498V222.242L90.1138 198.496L90.113 174.75Z" fill="#0080FF"/>
<path d="M0.000782941 161.016L48.3325 188.487V215.955L0 188.486L0.000782941 161.016Z" fill="url(#paint122_linear_3_650)"/>
<path d="M96.6643 161.016L48.3325 188.487V215.955L96.6654 188.486L96.6643 161.016Z" fill="url(#paint123_linear_3_650)"/>
<path d="M0.000915527 161.016L48.3327 133.544L96.6644 161.016L48.3327 188.487L0.000915527 161.016Z" fill="url(#paint124_linear_3_650)"/>
<path d="M16.7146 161.016L48.3325 143.044L79.9504 161.016L48.3325 178.987L16.7146 161.016Z" fill="url(#paint125_linear_3_650)"/>
<path d="M23.123 164.658L48.3325 150.329L73.5424 164.658L48.3325 178.987L23.123 164.658Z" fill="#0080FF"/>
<path d="M48.3325 143.044V150.329L23.123 164.658L16.7146 161.016L48.3325 143.044Z" fill="url(#paint126_linear_3_650)"/>
<path d="M85.204 217.617L89.792 215.01L88.6685 214.367L85.204 216.337V217.617Z" fill="url(#paint127_linear_3_650)"/>
<path d="M89.792 211.721V215.01L88.6685 214.367V212.398L89.792 211.721Z" fill="url(#paint128_linear_3_650)"/>
<path d="M85.204 216.337V214.367L88.6685 212.398V214.367L85.204 216.337Z" fill="url(#paint129_linear_3_650)"/>
<path d="M78.1806 221.41L82.7687 218.803L81.6455 218.16L78.1806 220.129V221.41Z" fill="url(#paint130_linear_3_650)"/>
<path d="M82.7686 215.514V218.803L81.6455 218.16V216.19L82.7686 215.514Z" fill="url(#paint131_linear_3_650)"/>
<path d="M78.1806 220.129V218.16L81.6455 216.19V218.16L78.1806 220.129Z" fill="url(#paint132_linear_3_650)"/>
<path d="M62.2294 258.586L66.817 255.978L65.6939 255.336L62.2294 257.305V258.586Z" fill="url(#paint133_linear_3_650)"/>
<path d="M66.817 252.689V255.978L65.6939 255.336V253.366L66.817 252.689Z" fill="url(#paint134_linear_3_650)"/>
<path d="M62.2294 257.305V255.336L65.6939 253.366V255.336L62.2294 257.305Z" fill="url(#paint135_linear_3_650)"/>
<path d="M55.206 262.378L59.794 259.771L58.6705 259.128L55.206 261.097V262.378Z" fill="url(#paint136_linear_3_650)"/>
<path d="M59.794 256.482V259.771L58.6705 259.128V257.159L59.794 256.482Z" fill="url(#paint137_linear_3_650)"/>
<path d="M55.206 261.097V259.128L58.6705 257.159V259.128L55.206 261.097Z" fill="url(#paint138_linear_3_650)"/>
<path d="M11.4614 218.45L6.87341 215.843L7.99654 215.2L11.4614 217.169V218.45Z" fill="url(#paint139_linear_3_650)"/>
<path d="M6.87341 212.554V215.843L7.99654 215.2V213.23L6.87341 212.554Z" fill="url(#paint140_linear_3_650)"/>
<path d="M11.4615 217.169V215.2L7.99658 213.23V215.2L11.4615 217.169Z" fill="url(#paint141_linear_3_650)"/>
<path d="M18.4845 222.242L13.8964 219.635L15.0199 218.992L18.4845 220.962V222.242Z" fill="url(#paint142_linear_3_650)"/>
<path d="M13.8964 216.346V219.635L15.0199 218.992V217.022L13.8964 216.346Z" fill="url(#paint143_linear_3_650)"/>
<path d="M18.4845 220.962V218.992L15.02 217.022V218.992L18.4845 220.962Z" fill="url(#paint144_linear_3_650)"/>
<path d="M34.4361 259.418L29.8481 256.811L30.9716 256.168L34.4361 258.137V259.418Z" fill="url(#paint145_linear_3_650)"/>
<path d="M29.8481 253.522V256.811L30.9716 256.168V254.198L29.8481 253.522Z" fill="url(#paint146_linear_3_650)"/>
<path d="M34.4361 258.137V256.168L30.9716 254.198V256.168L34.4361 258.137Z" fill="url(#paint147_linear_3_650)"/>
<path d="M41.4591 263.21L36.8714 260.603L37.9946 259.96L41.4591 261.93V263.21Z" fill="url(#paint148_linear_3_650)"/>
<path d="M36.8714 257.314V260.603L37.9946 259.96V257.991L36.8714 257.314Z" fill="url(#paint149_linear_3_650)"/>
<path d="M41.4591 261.93V259.96L37.9946 257.991V259.96L41.4591 261.93Z" fill="url(#paint150_linear_3_650)"/>
<path opacity="0.5" d="M34.0325 335.895C40.0367 335.895 44.904 333.209 44.904 329.896C44.904 326.583 40.0367 323.897 34.0325 323.897C28.0283 323.897 23.161 326.583 23.161 329.896C23.161 333.209 28.0283 335.895 34.0325 335.895Z" fill="url(#paint151_linear_3_650)"/>
<path d="M19.7744 297.327L20.1866 298.041C22.7527 302.495 23.6225 307.703 22.6395 312.731L20.789 322.197C20.147 325.48 21.6945 328.802 24.6407 330.465L24.6697 330.481C27.1262 331.868 30.1472 331.864 32.5997 330.47C35.5334 328.802 37.0715 325.488 36.4314 322.213L34.5911 312.8C33.5999 307.73 34.4925 302.479 37.1063 298.003L37.5013 297.326H19.7744V297.327Z" fill="url(#paint152_linear_3_650)"/>
<path d="M37.5009 297.327C37.5009 298.15 36.1413 298.88 34.0305 299.345C32.5363 299.675 30.667 299.871 28.6376 299.871C26.6083 299.871 24.737 299.675 23.2428 299.345C21.1343 298.88 19.7744 298.15 19.7744 297.327C19.7744 295.922 23.7415 294.782 28.6376 294.782C33.5322 294.782 37.5009 295.922 37.5009 297.327Z" fill="url(#paint153_linear_3_650)"/>
<path d="M34.0325 299.322C34.0325 299.329 34.0325 299.338 34.0305 299.345C32.5363 299.675 30.667 299.871 28.6376 299.871C26.6082 299.871 24.737 299.675 23.2428 299.345C23.2408 299.338 23.2408 299.329 23.2408 299.322C23.2408 298.465 25.6566 297.773 28.6376 297.773C31.6167 297.773 34.0325 298.465 34.0325 299.322Z" fill="url(#paint154_linear_3_650)"/>
<path d="M30.6259 299.07C30.6259 299.07 35.569 235.645 26.8713 234.293C18.1736 232.941 27.9212 299.037 27.9212 299.037L30.6259 299.07Z" fill="url(#paint155_linear_3_650)"/>
<path d="M25.4092 299.07C25.4092 299.07 8.81984 251.357 17.1143 248.986C25.4088 246.614 29.1176 299.07 29.1176 299.07H25.4092Z" fill="url(#paint156_linear_3_650)"/>
<path d="M30.6259 299.07C30.6259 299.07 41.3683 268.174 35.9973 266.638C30.6263 265.103 28.2246 299.07 28.2246 299.07H30.6259Z" fill="url(#paint157_linear_3_650)"/>
<path opacity="0.5" d="M320.645 344.665C330.45 344.665 338.399 342.59 338.399 340.031C338.399 337.471 330.45 335.396 320.645 335.396C310.841 335.396 302.892 337.471 302.892 340.031C302.892 342.59 310.841 344.665 320.645 344.665Z" fill="url(#paint158_linear_3_650)"/>
<path d="M337.544 268.312L329.709 266.888L327.168 278.499L334.72 280.591L337.544 268.312Z" fill="#0080FF"/>
<path d="M312.905 268.47L312.421 278.17L315.541 289.65L316.62 290.801L313.976 278.736L315.064 268.142L312.905 268.47Z" fill="url(#paint159_linear_3_650)"/>
<path d="M314.206 290.988L315.601 314.499L314.206 340.54L318.575 339.489L315.331 338.443L318.27 313.946L319.09 290.988H314.206Z" fill="url(#paint160_linear_3_650)"/>
<path d="M314.278 339.182L315.331 338.443L318.575 339.489L314.206 340.54L314.278 339.182Z" fill="#1D1D1B"/>
<path d="M317.357 293.332L320.486 316.843L319.09 342.884L323.459 341.833L320.216 340.787L323.154 316.29L322.091 293.332H317.357Z" fill="url(#paint161_linear_3_650)"/>
<path d="M319.163 341.526L320.216 340.787L323.459 341.833L319.09 342.884L319.163 341.526Z" fill="#1D1D1B"/>
<path d="M311.212 293.888C311.789 296.658 312.912 296.393 312.706 299.213L312.686 301.938V301.945L314.652 302.849C315.576 303.273 316.65 303.23 317.537 302.735L318.828 301.999C322.58 299.86 325.256 303.167 324.959 298.908L323.303 274.807C324.643 273.442 325.646 271.064 324.369 269.637L321.511 265.895C320.293 264.301 318.248 263.545 316.265 263.957L314.679 264.286C314.679 264.286 312.204 265.442 313.045 270.899C313.717 275.254 316.886 276.669 314.639 281.272C312.53 285.595 310.689 291.375 311.212 293.888Z" fill="url(#paint162_linear_3_650)"/>
<path d="M318.093 262.551C319.503 262.551 320.645 261.426 320.645 260.039C320.645 258.651 319.503 257.526 318.093 257.526C316.683 257.526 315.541 258.651 315.541 260.039C315.541 261.426 316.683 262.551 318.093 262.551Z" fill="url(#paint163_linear_3_650)"/>
<path d="M319.801 256.447C320.53 256.669 320.861 257.502 320.497 258.161C319.889 259.262 318.73 261.53 318.707 262.828C318.692 263.735 318.722 264.695 318.878 265.276C318.983 265.668 318.803 266.077 318.426 266.242C316.483 267.095 312.136 268.717 312.135 266.144C312.134 264.851 313.291 261.551 313.545 260.038C314.011 257.268 315.428 256.526 318.132 256.307C318.798 256.254 319.362 256.313 319.801 256.447Z" fill="#1D1D1B"/>
<path d="M318.331 271.313L322.25 281.272L335.962 277.205L337.544 275.608L336.29 273.81L335.749 275.63L334.167 275.318L335.345 276.61L323.239 279.173L320.785 269.238L318.331 271.313Z" fill="url(#paint164_linear_3_650)"/>
<path d="M320.506 266.755C321.139 267.331 321.774 268.359 321.771 270.156L317.95 272.263C317.95 272.263 314.834 268.594 318.142 266.575C318.885 266.122 319.864 266.17 320.506 266.755Z" fill="url(#paint165_linear_3_650)"/>
<path opacity="0.5" d="M234.633 364C243.581 364 250.834 362.106 250.834 359.771C250.834 357.435 243.581 355.541 234.633 355.541C225.686 355.541 218.433 357.435 218.433 359.771C218.433 362.106 225.686 364 234.633 364Z" fill="url(#paint166_linear_3_650)"/>
<path d="M231.526 359.771L236.447 356.763L235.926 351.34L232.027 310.933L236.375 309.449L236.497 313.58L237.612 351.68L237.765 356.891L237.809 358.382L231.526 359.771Z" fill="url(#paint167_linear_3_650)"/>
<path d="M237.612 351.68L235.926 351.34L234.628 351.079L231.275 309.473L236.497 313.579L237.612 351.68Z" fill="#1D1D1B"/>
<path d="M237.765 356.891L237.809 358.382L231.526 359.771L236.447 356.763L237.765 356.891Z" fill="#1D1D1B"/>
<path d="M238.06 360.919L242.982 357.911L242.46 352.488L238.561 312.081L242.909 310.597L243.032 314.728L244.146 352.828L244.3 358.038L244.343 359.53L238.06 360.919Z" fill="url(#paint168_linear_3_650)"/>
<path d="M244.146 352.828L242.46 352.487L241.162 352.227L237.809 310.621L243.032 314.727L244.146 352.828Z" fill="#1D1D1B"/>
<path d="M244.3 358.038L244.343 359.53L238.06 360.919L242.982 357.911L244.3 358.038Z" fill="#1D1D1B"/>
<path d="M229.503 286.969L222.958 293.74L215.141 282.919L211.916 282.385L209.696 283.969L213.501 285.296C213.501 285.296 218.764 313.923 232.861 292.555L229.503 286.969Z" fill="url(#paint169_linear_3_650)"/>
<path d="M226.1 290.49L228.539 297.883L234.583 294.151L229.503 286.969L226.1 290.49Z" fill="url(#paint170_linear_3_650)"/>
<path d="M234.247 285.161L238.061 285.837C241.248 286.402 243.572 289.125 243.588 292.313L244.84 316.741C240.648 318.78 235.596 317.893 232.379 314.552L228.597 310.623L228.505 290.22C228.29 287.096 231.116 284.606 234.247 285.161Z" fill="url(#paint171_linear_3_650)"/>
<path d="M233.569 294.778L237.506 307.776L228.597 310.623L224.267 298.075L233.569 294.778Z" fill="#0080FF"/>
<path d="M236.646 283.515C236.646 283.515 236.501 285.951 236.131 286.209C235.76 286.466 233.838 288.489 234.821 284.458C235.804 280.428 236.646 283.515 236.646 283.515Z" fill="url(#paint172_linear_3_650)"/>
<path d="M234.527 285.194C235.856 285.194 236.933 284.133 236.933 282.825C236.933 281.517 235.856 280.457 234.527 280.457C233.198 280.457 232.121 281.517 232.121 282.825C232.121 284.133 233.198 285.194 234.527 285.194Z" fill="url(#paint173_linear_3_650)"/>
<path d="M232.319 281.884C232.319 281.884 223.382 277.488 224.908 273.649C226.434 269.81 237.507 282.152 237.507 282.152L236.608 284.014C236.608 284.014 236.734 282.459 236.082 282.818C235.43 283.177 235.593 284.378 235.593 284.378L235.161 282.822L232.319 281.884Z" fill="#1D1D1B"/>
<path d="M234.536 305.577L233.979 306.975L232.129 302.918L242.163 302.753L239.935 295.956L242.09 288.185C244.237 290.576 245.876 293.34 246.564 295.436C252.397 313.21 241.364 307.311 236.949 304.754C236.059 304.24 234.913 304.631 234.536 305.577Z" fill="url(#paint174_linear_3_650)"/>
<path d="M246.781 294.704L240.931 298.857L239.203 293.824C239.111 293.428 238.982 293.042 238.865 292.652C238.336 290.887 240.153 287.826 242.091 288.185C244.237 290.577 245.761 292.743 246.781 294.704Z" fill="url(#paint175_linear_3_650)"/>
<path opacity="0.4" d="M217.5 305.985L191.504 291.208L191.504 269.044L217.5 283.82V305.985Z" fill="url(#paint176_linear_3_650)"/>
<g opacity="0.4">
<path d="M194.224 277.022V290.998L197.76 293.008L197.76 278.94L194.224 277.022Z" fill="url(#paint177_linear_3_650)"/>
<path d="M199.528 285.196V294.122L203.064 296.023V287.206L199.528 285.196Z" fill="url(#paint178_linear_3_650)"/>
<path d="M204.747 284.879V297.047L208.283 298.947V286.889L204.747 284.879Z" fill="url(#paint179_linear_3_650)"/>
<path d="M210.159 283.962V300.02L213.671 302.052L213.694 285.972L210.159 283.962Z" fill="url(#paint180_linear_3_650)"/>
</g>
<path opacity="0.4" d="M191.504 265.35L191.504 269.044L217.5 283.82V280.126L191.504 265.35Z" fill="url(#paint181_linear_3_650)"/>
<defs>
<linearGradient id="paint0_linear_3_650" x1="262.813" y1="210.303" x2="262.74" y2="207.538" gradientUnits="userSpaceOnUse">
<stop stop-color="#F6F6F6"/>
<stop offset="1" stop-color="#CCD5ED"/>
</linearGradient>
<linearGradient id="paint1_linear_3_650" x1="246.654" y1="160.97" x2="218.486" y2="180.537" gradientUnits="userSpaceOnUse">
<stop stop-color="#F6F6F6"/>
<stop offset="1" stop-color="#CCD5ED"/>
</linearGradient>
<linearGradient id="paint2_linear_3_650" x1="245.299" y1="171.682" x2="263.025" y2="171.682" gradientUnits="userSpaceOnUse">
<stop stop-color="#F6F6F6"/>
<stop offset="1" stop-color="#CCD5ED"/>
</linearGradient>
<linearGradient id="paint3_linear_3_650" x1="233.688" y1="166.132" x2="233.67" y2="174.203" gradientUnits="userSpaceOnUse">
<stop stop-color="#4790CD"/>
<stop offset="1" stop-color="#EA6FAA"/>
</linearGradient>
<linearGradient id="paint4_linear_3_650" x1="253.116" y1="88.1487" x2="240.188" y2="90.3469" gradientUnits="userSpaceOnUse">
<stop stop-color="#4790CD"/>
<stop offset="1" stop-color="#0080FF"/>
</linearGradient>
<linearGradient id="paint5_linear_3_650" x1="240.826" y1="133.511" x2="257.476" y2="167.601" gradientUnits="userSpaceOnUse">
<stop stop-color="#4790CD"/>
<stop offset="1" stop-color="#0080FF"/>
</linearGradient>
<linearGradient id="paint6_linear_3_650" x1="252.223" y1="163.599" x2="266.314" y2="167.02" gradientUnits="userSpaceOnUse">
<stop stop-color="#4790CD"/>
<stop offset="1" stop-color="#0080FF"/>
</linearGradient>
<linearGradient id="paint7_linear_3_650" x1="458.14" y1="353.401" x2="458.437" y2="344.352" gradientUnits="userSpaceOnUse">
<stop stop-color="#F6F6F6"/>
<stop offset="1" stop-color="#CCD5ED"/>
</linearGradient>
<linearGradient id="paint8_linear_3_650" x1="423.479" y1="277.285" x2="423.479" y2="291.23" gradientUnits="userSpaceOnUse">
<stop stop-color="#F6F6F6"/>
<stop offset="1" stop-color="#CCD5ED"/>
</linearGradient>
<linearGradient id="paint9_linear_3_650" x1="446.733" y1="293.691" x2="439.697" y2="312.062" gradientUnits="userSpaceOnUse">
<stop stop-color="#F6F6F6"/>
<stop offset="1" stop-color="#CCD5ED"/>
</linearGradient>
<linearGradient id="paint10_linear_3_650" x1="478.945" y1="317.181" x2="479.721" y2="332.679" gradientUnits="userSpaceOnUse">
<stop stop-color="#F6F6F6"/>
<stop offset="1" stop-color="#CCD5ED"/>
</linearGradient>
<linearGradient id="paint11_linear_3_650" x1="450.544" y1="305.411" x2="465.269" y2="332.511" gradientUnits="userSpaceOnUse">
<stop stop-color="#F6F6F6"/>
<stop offset="1" stop-color="#CCD5ED"/>
</linearGradient>
<linearGradient id="paint12_linear_3_650" x1="401.291" y1="272.916" x2="392.285" y2="348.122" gradientUnits="userSpaceOnUse">
<stop stop-color="#4790CD"/>
<stop offset="1" stop-color="#0080FF"/>
</linearGradient>
<linearGradient id="paint13_linear_3_650" x1="474.213" y1="274.763" x2="470.852" y2="280.315" gradientUnits="userSpaceOnUse">
<stop stop-color="#4790CD"/>
<stop offset="1" stop-color="#0080FF"/>
</linearGradient>
<linearGradient id="paint14_linear_3_650" x1="444.996" y1="249.684" x2="419.221" y2="311.49" gradientUnits="userSpaceOnUse">
<stop stop-color="#4790CD"/>
<stop offset="1" stop-color="#0080FF"/>
</linearGradient>
<linearGradient id="paint15_linear_3_650" x1="328.309" y1="280.967" x2="328.606" y2="271.919" gradientUnits="userSpaceOnUse">
<stop stop-color="#F6F6F6"/>
<stop offset="1" stop-color="#CCD5ED"/>
</linearGradient>
<linearGradient id="paint16_linear_3_650" x1="293.648" y1="204.851" x2="293.648" y2="218.796" gradientUnits="userSpaceOnUse">
<stop stop-color="#F6F6F6"/>
<stop offset="1" stop-color="#CCD5ED"/>
</linearGradient>
<linearGradient id="paint17_linear_3_650" x1="316.903" y1="221.257" x2="309.867" y2="239.628" gradientUnits="userSpaceOnUse">
<stop stop-color="#F6F6F6"/>
<stop offset="1" stop-color="#CCD5ED"/>
</linearGradient>
<linearGradient id="paint18_linear_3_650" x1="349.114" y1="244.747" x2="349.89" y2="260.245" gradientUnits="userSpaceOnUse">
<stop stop-color="#F6F6F6"/>
<stop offset="1" stop-color="#CCD5ED"/>
</linearGradient>
<linearGradient id="paint19_linear_3_650" x1="320.714" y1="232.977" x2="335.438" y2="260.077" gradientUnits="userSpaceOnUse">
<stop stop-color="#F6F6F6"/>
<stop offset="1" stop-color="#CCD5ED"/>
</linearGradient>
<linearGradient id="paint20_linear_3_650" x1="271.461" y1="200.483" x2="262.454" y2="275.688" gradientUnits="userSpaceOnUse">
<stop stop-color="#4790CD"/>
<stop offset="1" stop-color="#0080FF"/>
</linearGradient>
<linearGradient id="paint21_linear_3_650" x1="344.383" y1="202.33" x2="341.021" y2="207.881" gradientUnits="userSpaceOnUse">
<stop stop-color="#4790CD"/>
<stop offset="1" stop-color="#0080FF"/>
</linearGradient>
<linearGradient id="paint22_linear_3_650" x1="315.165" y1="177.25" x2="289.39" y2="239.056" gradientUnits="userSpaceOnUse">
<stop stop-color="#4790CD"/>
<stop offset="1" stop-color="#0080FF"/>
</linearGradient>
<linearGradient id="paint23_linear_3_650" x1="127.959" y1="205.798" x2="172.817" y2="242.313" gradientUnits="userSpaceOnUse">
<stop stop-color="#F6F6F6"/>
<stop offset="1" stop-color="#CCD5ED"/>
</linearGradient>
<linearGradient id="paint24_linear_3_650" x1="186.061" y1="217.303" x2="224.562" y2="228.51" gradientUnits="userSpaceOnUse">
<stop stop-color="#F6F6F6"/>
<stop offset="1" stop-color="#CCD5ED"/>
</linearGradient>
<linearGradient id="paint25_linear_3_650" x1="159.863" y1="175.813" x2="158.905" y2="211.676" gradientUnits="userSpaceOnUse">
<stop stop-color="#F6F6F6"/>
<stop offset="1" stop-color="#CCD5ED"/>
</linearGradient>
<linearGradient id="paint26_linear_3_650" x1="205.306" y1="204.012" x2="214.59" y2="166.838" gradientUnits="userSpaceOnUse">
<stop stop-color="#F6F6F6"/>
<stop offset="1" stop-color="#CCD5ED"/>
</linearGradient>
<linearGradient id="paint27_linear_3_650" x1="191.331" y1="167.184" x2="182.92" y2="185.409" gradientUnits="userSpaceOnUse">
<stop stop-color="#F6F6F6"/>
<stop offset="1" stop-color="#CCD5ED"/>
</linearGradient>
<linearGradient id="paint28_linear_3_650" x1="128.056" y1="166.737" x2="156.885" y2="207.575" gradientUnits="userSpaceOnUse">
<stop stop-color="#F6F6F6"/>
<stop offset="1" stop-color="#CCD5ED"/>
</linearGradient>
<linearGradient id="paint29_linear_3_650" x1="187.426" y1="177.209" x2="219.283" y2="193.345" gradientUnits="userSpaceOnUse">
<stop stop-color="#F6F6F6"/>
<stop offset="1" stop-color="#CCD5ED"/>
</linearGradient>
<linearGradient id="paint30_linear_3_650" x1="159.862" y1="148.342" x2="158.904" y2="184.204" gradientUnits="userSpaceOnUse">
<stop stop-color="#F6F6F6"/>
<stop offset="1" stop-color="#CCD5ED"/>
</linearGradient>
<linearGradient id="paint31_linear_3_650" x1="205.307" y1="176.54" x2="214.59" y2="139.367" gradientUnits="userSpaceOnUse">
<stop stop-color="#F6F6F6"/>
<stop offset="1" stop-color="#CCD5ED"/>
</linearGradient>
<linearGradient id="paint32_linear_3_650" x1="191.331" y1="139.712" x2="182.92" y2="157.938" gradientUnits="userSpaceOnUse">
<stop stop-color="#F6F6F6"/>
<stop offset="1" stop-color="#CCD5ED"/>
</linearGradient>
<linearGradient id="paint33_linear_3_650" x1="128.056" y1="139.266" x2="156.884" y2="180.104" gradientUnits="userSpaceOnUse">
<stop stop-color="#F6F6F6"/>
<stop offset="1" stop-color="#CCD5ED"/>
</linearGradient>
<linearGradient id="paint34_linear_3_650" x1="187.426" y1="149.738" x2="219.283" y2="165.874" gradientUnits="userSpaceOnUse">
<stop stop-color="#F6F6F6"/>
<stop offset="1" stop-color="#CCD5ED"/>
</linearGradient>
<linearGradient id="paint35_linear_3_650" x1="159.862" y1="120.871" x2="158.904" y2="156.733" gradientUnits="userSpaceOnUse">
<stop stop-color="#F6F6F6"/>
<stop offset="1" stop-color="#CCD5ED"/>
</linearGradient>
<linearGradient id="paint36_linear_3_650" x1="205.306" y1="149.069" x2="214.59" y2="111.895" gradientUnits="userSpaceOnUse">
<stop stop-color="#F6F6F6"/>
<stop offset="1" stop-color="#CCD5ED"/>
</linearGradient>
<linearGradient id="paint37_linear_3_650" x1="191.331" y1="112.241" x2="182.92" y2="130.467" gradientUnits="userSpaceOnUse">
<stop stop-color="#F6F6F6"/>
<stop offset="1" stop-color="#CCD5ED"/>
</linearGradient>
<linearGradient id="paint38_linear_3_650" x1="190.11" y1="115.556" x2="182.979" y2="106.13" gradientUnits="userSpaceOnUse">
<stop stop-color="#F6F6F6"/>
<stop offset="1" stop-color="#CCD5ED"/>
</linearGradient>
<linearGradient id="paint39_linear_3_650" x1="127.959" y1="109.648" x2="172.816" y2="146.164" gradientUnits="userSpaceOnUse">
<stop stop-color="#F6F6F6"/>
<stop offset="1" stop-color="#CCD5ED"/>
</linearGradient>
<linearGradient id="paint40_linear_3_650" x1="186.061" y1="121.153" x2="224.561" y2="132.36" gradientUnits="userSpaceOnUse">
<stop stop-color="#F6F6F6"/>
<stop offset="1" stop-color="#CCD5ED"/>
</linearGradient>
<linearGradient id="paint41_linear_3_650" x1="159.863" y1="79.6652" x2="158.905" y2="115.527" gradientUnits="userSpaceOnUse">
<stop stop-color="#F6F6F6"/>
<stop offset="1" stop-color="#CCD5ED"/>
</linearGradient>
<linearGradient id="paint42_linear_3_650" x1="205.306" y1="107.864" x2="214.59" y2="70.6897" gradientUnits="userSpaceOnUse">
<stop stop-color="#F6F6F6"/>
<stop offset="1" stop-color="#CCD5ED"/>
</linearGradient>
<linearGradient id="paint43_linear_3_650" x1="190.11" y1="74.3506" x2="182.979" y2="64.9243" gradientUnits="userSpaceOnUse">
<stop stop-color="#F6F6F6"/>
<stop offset="1" stop-color="#CCD5ED"/>
</linearGradient>
<linearGradient id="paint44_linear_3_650" x1="227.43" y1="132.689" x2="227.05" y2="137.636" gradientUnits="userSpaceOnUse">
<stop stop-color="#4790CD"/>
<stop offset="1" stop-color="#DA62A5"/>
</linearGradient>
<linearGradient id="paint45_linear_3_650" x1="231.989" y1="137.35" x2="234.251" y2="137.036" gradientUnits="userSpaceOnUse">
<stop stop-color="#4790CD"/>
<stop offset="1" stop-color="#DA62A5"/>
</linearGradient>
<linearGradient id="paint46_linear_3_650" x1="228.665" y1="129.716" x2="228.665" y2="132.579" gradientUnits="userSpaceOnUse">
<stop stop-color="#4790CD"/>
<stop offset="1" stop-color="#DA62A5"/>
</linearGradient>
<linearGradient id="paint47_linear_3_650" x1="220.407" y1="136.482" x2="220.027" y2="141.429" gradientUnits="userSpaceOnUse">
<stop stop-color="#4790CD"/>
<stop offset="1" stop-color="#DA62A5"/>
</linearGradient>
<linearGradient id="paint48_linear_3_650" x1="224.965" y1="141.142" x2="227.227" y2="140.829" gradientUnits="userSpaceOnUse">
<stop stop-color="#4790CD"/>
<stop offset="1" stop-color="#DA62A5"/>
</linearGradient>
<linearGradient id="paint49_linear_3_650" x1="221.642" y1="129.716" x2="221.642" y2="132.579" gradientUnits="userSpaceOnUse">
<stop stop-color="#4790CD"/>
<stop offset="1" stop-color="#DA62A5"/>
</linearGradient>
<linearGradient id="paint50_linear_3_650" x1="204.456" y1="173.657" x2="204.075" y2="178.605" gradientUnits="userSpaceOnUse">
<stop stop-color="#4790CD"/>
<stop offset="1" stop-color="#DA62A5"/>
</linearGradient>
<linearGradient id="paint51_linear_3_650" x1="209.014" y1="178.319" x2="211.276" y2="178.006" gradientUnits="userSpaceOnUse">
<stop stop-color="#4790CD"/>
<stop offset="1" stop-color="#DA62A5"/>
</linearGradient>
<linearGradient id="paint52_linear_3_650" x1="205.69" y1="170.685" x2="205.69" y2="173.547" gradientUnits="userSpaceOnUse">
<stop stop-color="#4790CD"/>
<stop offset="1" stop-color="#DA62A5"/>
</linearGradient>
<linearGradient id="paint53_linear_3_650" x1="197.432" y1="177.45" x2="197.052" y2="182.397" gradientUnits="userSpaceOnUse">
<stop stop-color="#4790CD"/>
<stop offset="1" stop-color="#DA62A5"/>
</linearGradient>
<linearGradient id="paint54_linear_3_650" x1="201.991" y1="182.11" x2="204.253" y2="181.797" gradientUnits="userSpaceOnUse">
<stop stop-color="#4790CD"/>
<stop offset="1" stop-color="#DA62A5"/>
</linearGradient>
<linearGradient id="paint55_linear_3_650" x1="198.667" y1="170.685" x2="198.667" y2="173.547" gradientUnits="userSpaceOnUse">
<stop stop-color="#4790CD"/>
<stop offset="1" stop-color="#DA62A5"/>
</linearGradient>
<linearGradient id="paint56_linear_3_650" x1="148.268" y1="134.055" x2="148.648" y2="139.003" gradientUnits="userSpaceOnUse">
<stop stop-color="#4790CD"/>
<stop offset="1" stop-color="#DA62A5"/>
</linearGradient>
<linearGradient id="paint57_linear_3_650" x1="151.454" y1="132.383" x2="149.192" y2="132.071" gradientUnits="userSpaceOnUse">
<stop stop-color="#4790CD"/>
<stop offset="1" stop-color="#DA62A5"/>
</linearGradient>
<linearGradient id="paint58_linear_3_650" x1="151.458" y1="130.549" x2="151.458" y2="133.411" gradientUnits="userSpaceOnUse">
<stop stop-color="#4790CD"/>
<stop offset="1" stop-color="#DA62A5"/>
</linearGradient>
<linearGradient id="paint59_linear_3_650" x1="155.291" y1="137.848" x2="155.671" y2="142.795" gradientUnits="userSpaceOnUse">
<stop stop-color="#4790CD"/>
<stop offset="1" stop-color="#DA62A5"/>
</linearGradient>
<linearGradient id="paint60_linear_3_650" x1="158.478" y1="136.177" x2="156.216" y2="135.864" gradientUnits="userSpaceOnUse">
<stop stop-color="#4790CD"/>
<stop offset="1" stop-color="#DA62A5"/>
</linearGradient>
<linearGradient id="paint61_linear_3_650" x1="158.481" y1="130.549" x2="158.481" y2="133.411" gradientUnits="userSpaceOnUse">
<stop stop-color="#4790CD"/>
<stop offset="1" stop-color="#DA62A5"/>
</linearGradient>
<linearGradient id="paint62_linear_3_650" x1="171.242" y1="175.024" x2="171.623" y2="179.971" gradientUnits="userSpaceOnUse">
<stop stop-color="#4790CD"/>
<stop offset="1" stop-color="#DA62A5"/>
</linearGradient>
<linearGradient id="paint63_linear_3_650" x1="174.429" y1="173.352" x2="172.167" y2="173.039" gradientUnits="userSpaceOnUse">
<stop stop-color="#4790CD"/>
<stop offset="1" stop-color="#DA62A5"/>
</linearGradient>
<linearGradient id="paint64_linear_3_650" x1="174.432" y1="171.517" x2="174.432" y2="174.38" gradientUnits="userSpaceOnUse">
<stop stop-color="#4790CD"/>
<stop offset="1" stop-color="#DA62A5"/>
</linearGradient>
<linearGradient id="paint65_linear_3_650" x1="178.265" y1="178.816" x2="178.645" y2="183.763" gradientUnits="userSpaceOnUse">
<stop stop-color="#4790CD"/>
<stop offset="1" stop-color="#DA62A5"/>
</linearGradient>
<linearGradient id="paint66_linear_3_650" x1="181.452" y1="177.145" x2="179.19" y2="176.832" gradientUnits="userSpaceOnUse">
<stop stop-color="#4790CD"/>
<stop offset="1" stop-color="#DA62A5"/>
</linearGradient>
<linearGradient id="paint67_linear_3_650" x1="181.456" y1="171.517" x2="181.456" y2="174.38" gradientUnits="userSpaceOnUse">
<stop stop-color="#4790CD"/>
<stop offset="1" stop-color="#DA62A5"/>
</linearGradient>
<linearGradient id="paint68_linear_3_650" x1="399.913" y1="294.677" x2="406.652" y2="274.17" gradientUnits="userSpaceOnUse">
<stop stop-color="#F6F6F6"/>
<stop offset="1" stop-color="#CCD5ED"/>
</linearGradient>
<linearGradient id="paint69_linear_3_650" x1="396.853" y1="298.371" x2="439.917" y2="271.091" gradientUnits="userSpaceOnUse">
<stop stop-color="#F6F6F6"/>
<stop offset="1" stop-color="#CCD5ED"/>
</linearGradient>
<linearGradient id="paint70_linear_3_650" x1="353.591" y1="293.942" x2="387.574" y2="293.942" gradientUnits="userSpaceOnUse">
<stop stop-color="#F6F6F6"/>
<stop offset="1" stop-color="#CCD5ED"/>
</linearGradient>
<linearGradient id="paint71_linear_3_650" x1="397.533" y1="247.352" x2="420.956" y2="203.812" gradientUnits="userSpaceOnUse">
<stop stop-color="#F6F6F6"/>
<stop offset="1" stop-color="#CCD5ED"/>
</linearGradient>
<linearGradient id="paint72_linear_3_650" x1="537.807" y1="-498.036" x2="488.506" y2="-497.853" gradientUnits="userSpaceOnUse">
<stop stop-color="#F6F6F6"/>
<stop offset="1" stop-color="#CCD5ED"/>
</linearGradient>
<linearGradient id="paint73_linear_3_650" x1="294.607" y1="128.845" x2="521" y2="128.845" gradientUnits="userSpaceOnUse">
<stop stop-color="#F6F6F6"/>
<stop offset="1" stop-color="#CCD5ED"/>
</linearGradient>
<linearGradient id="paint74_linear_3_650" x1="422.713" y1="229.308" x2="417.269" y2="228.358" gradientUnits="userSpaceOnUse">
<stop stop-color="#F6F6F6"/>
<stop offset="1" stop-color="#CCD5ED"/>
</linearGradient>
<linearGradient id="paint75_linear_3_650" x1="426.049" y1="-90.2907" x2="227.567" y2="-29.9309" gradientUnits="userSpaceOnUse">
<stop stop-color="#F6F6F6"/>
<stop offset="1" stop-color="#CCD5ED"/>
</linearGradient>
<linearGradient id="paint76_linear_3_650" x1="281.015" y1="-31.3746" x2="472.841" y2="284.386" gradientUnits="userSpaceOnUse">
<stop stop-color="#F6F6F6"/>
<stop offset="1" stop-color="#CCD5ED"/>
</linearGradient>
<linearGradient id="paint77_linear_3_650" x1="258.327" y1="12.3401" x2="425.336" y2="93.9014" gradientUnits="userSpaceOnUse">
<stop stop-color="#F6F6F6"/>
<stop offset="1" stop-color="#CCD5ED"/>
</linearGradient>
<linearGradient id="paint78_linear_3_650" x1="247.484" y1="206.68" x2="247.484" y2="223.514" gradientUnits="userSpaceOnUse">
<stop stop-color="#F6F6F6"/>
<stop offset="1" stop-color="#CCD5ED"/>
</linearGradient>
<linearGradient id="paint79_linear_3_650" x1="281.188" y1="227.18" x2="273.693" y2="223.291" gradientUnits="userSpaceOnUse">
<stop stop-color="#FAD6C7"/>
<stop offset="1" stop-color="#E4857F"/>
</linearGradient>
<linearGradient id="paint80_linear_3_650" x1="275.185" y1="228.234" x2="267.691" y2="224.345" gradientUnits="userSpaceOnUse">
<stop stop-color="#FAD6C7"/>
<stop offset="1" stop-color="#E4857F"/>
</linearGradient>
<linearGradient id="paint81_linear_3_650" x1="269.991" y1="166.1" x2="271.179" y2="200.988" gradientUnits="userSpaceOnUse">
<stop stop-color="#4790CD"/>
<stop offset="1" stop-color="#DA62A5"/>
</linearGradient>
<linearGradient id="paint82_linear_3_650" x1="284.699" y1="188.482" x2="282.2" y2="162.221" gradientUnits="userSpaceOnUse">
<stop stop-color="#F6F6F6"/>
<stop offset="1" stop-color="#CCD5ED"/>
</linearGradient>
<linearGradient id="paint83_linear_3_650" x1="280.858" y1="162.524" x2="271.106" y2="178.644" gradientUnits="userSpaceOnUse">
<stop stop-color="#0080FF"/>
<stop offset="1" stop-color="#0080FF"/>
</linearGradient>
<linearGradient id="paint84_linear_3_650" x1="279.261" y1="164.428" x2="279.302" y2="162.669" gradientUnits="userSpaceOnUse">
<stop stop-color="#FAD6C7"/>
<stop offset="1" stop-color="#E4857F"/>
</linearGradient>
<linearGradient id="paint85_linear_3_650" x1="281.228" y1="161.79" x2="281.008" y2="159.176" gradientUnits="userSpaceOnUse">
<stop stop-color="#FAD6C7"/>
<stop offset="1" stop-color="#E4857F"/>
</linearGradient>
<linearGradient id="paint86_linear_3_650" x1="248.77" y1="168.136" x2="250.669" y2="230.488" gradientUnits="userSpaceOnUse">
<stop stop-color="#FAD6C7"/>
<stop offset="1" stop-color="#E4857F"/>
</linearGradient>
<linearGradient id="paint87_linear_3_650" x1="259.38" y1="167.184" x2="260.636" y2="201.381" gradientUnits="userSpaceOnUse">
<stop stop-color="#4790CD"/>
<stop offset="1" stop-color="#DA62A5"/>
</linearGradient>
<linearGradient id="paint88_linear_3_650" x1="106.815" y1="237.596" x2="178.768" y2="251.909" gradientUnits="userSpaceOnUse">
<stop stop-color="#4790CD"/>
<stop offset="1" stop-color="#0080FF"/>
</linearGradient>
<linearGradient id="paint89_linear_3_650" x1="134.632" y1="138.995" x2="135.126" y2="148.297" gradientUnits="userSpaceOnUse">
<stop stop-color="#DA62A5"/>
<stop offset="1" stop-color="#0080FF"/>
</linearGradient>
<linearGradient id="paint90_linear_3_650" x1="118.924" y1="223.413" x2="119.198" y2="226.705" gradientUnits="userSpaceOnUse">
<stop stop-color="#4790CD"/>
<stop offset="1" stop-color="#DA62A5"/>
</linearGradient>
<linearGradient id="paint91_linear_3_650" x1="118.924" y1="225.365" x2="119.198" y2="228.657" gradientUnits="userSpaceOnUse">
<stop stop-color="#4790CD"/>
<stop offset="1" stop-color="#DA62A5"/>
</linearGradient>
<linearGradient id="paint92_linear_3_650" x1="118.924" y1="227.316" x2="119.198" y2="230.608" gradientUnits="userSpaceOnUse">
<stop stop-color="#0080FF"/>
<stop offset="0.735" stop-color="#0080FF"/>
<stop offset="0.9999" stop-color="#257BF0"/>
<stop offset="1" stop-color="#DA62A5"/>
<stop offset="1.0001" stop-color="#0080FF"/>
</linearGradient>
<linearGradient id="paint93_linear_3_650" x1="118.924" y1="229.267" x2="119.198" y2="232.559" gradientUnits="userSpaceOnUse">
<stop stop-color="#4790CD"/>
<stop offset="1" stop-color="#DA62A5"/>
</linearGradient>
<linearGradient id="paint94_linear_3_650" x1="121.304" y1="230.81" x2="121.505" y2="233.133" gradientUnits="userSpaceOnUse">
<stop stop-color="#4790CD"/>
<stop offset="1" stop-color="#DA62A5"/>
</linearGradient>
<linearGradient id="paint95_linear_3_650" x1="108.639" y1="219.259" x2="118.821" y2="244.672" gradientUnits="userSpaceOnUse">
<stop stop-color="#4790CD"/>
<stop offset="1" stop-color="#0080FF"/>
</linearGradient>
<linearGradient id="paint96_linear_3_650" x1="161.428" y1="181.167" x2="163.622" y2="186.522" gradientUnits="userSpaceOnUse">
<stop stop-color="#F6F6F6"/>
<stop offset="1" stop-color="#CCD5ED"/>
</linearGradient>
<linearGradient id="paint97_linear_3_650" x1="167.981" y1="204.696" x2="184.268" y2="218.028" gradientUnits="userSpaceOnUse">
<stop stop-color="#FAD6C7"/>
<stop offset="1" stop-color="#E4857F"/>
</linearGradient>
<linearGradient id="paint98_linear_3_650" x1="150.349" y1="248.213" x2="150.349" y2="266.907" gradientUnits="userSpaceOnUse">
<stop stop-color="#F6F6F6"/>
<stop offset="1" stop-color="#CCD5ED"/>
</linearGradient>
<linearGradient id="paint99_linear_3_650" x1="184.606" y1="260.223" x2="199.336" y2="252.216" gradientUnits="userSpaceOnUse">
<stop stop-color="#FAD6C7"/>
<stop offset="1" stop-color="#E4857F"/>
</linearGradient>
<linearGradient id="paint100_linear_3_650" x1="192.62" y1="258.755" x2="210.35" y2="243.21" gradientUnits="userSpaceOnUse">
<stop stop-color="#FAD6C7"/>
<stop offset="1" stop-color="#E4857F"/>
</linearGradient>
<linearGradient id="paint101_linear_3_650" x1="178.543" y1="239.566" x2="173.414" y2="237.024" gradientUnits="userSpaceOnUse">
<stop stop-color="#FAD6C7"/>
<stop offset="1" stop-color="#E4857F"/>
</linearGradient>
<linearGradient id="paint102_linear_3_650" x1="192.126" y1="241.089" x2="199.82" y2="210.361" gradientUnits="userSpaceOnUse">
<stop stop-color="#F6F6F6"/>
<stop offset="1" stop-color="#CCD5ED"/>
</linearGradient>
<linearGradient id="paint103_linear_3_650" x1="181.045" y1="233.82" x2="188.749" y2="232.815" gradientUnits="userSpaceOnUse">
<stop stop-color="#FAD6C7"/>
<stop offset="1" stop-color="#E4857F"/>
</linearGradient>
<linearGradient id="paint104_linear_3_650" x1="186.475" y1="240.686" x2="192.355" y2="209.196" gradientUnits="userSpaceOnUse">
<stop stop-color="#F6F6F6"/>
<stop offset="1" stop-color="#CCD5ED"/>
</linearGradient>
<linearGradient id="paint105_linear_3_650" x1="189.571" y1="204.004" x2="191.37" y2="191.587" gradientUnits="userSpaceOnUse">
<stop stop-color="#FAD6C7"/>
<stop offset="1" stop-color="#E4857F"/>
</linearGradient>
<linearGradient id="paint106_linear_3_650" x1="-15.0289" y1="285.799" x2="29.8298" y2="322.314" gradientUnits="userSpaceOnUse">
<stop stop-color="#F6F6F6"/>
<stop offset="1" stop-color="#CCD5ED"/>
</linearGradient>
<linearGradient id="paint107_linear_3_650" x1="43.0729" y1="297.304" x2="81.574" y2="308.51" gradientUnits="userSpaceOnUse">
<stop stop-color="#F6F6F6"/>
<stop offset="1" stop-color="#CCD5ED"/>
</linearGradient>
<linearGradient id="paint108_linear_3_650" x1="16.8747" y1="255.814" x2="15.9168" y2="291.677" gradientUnits="userSpaceOnUse">
<stop stop-color="#F6F6F6"/>
<stop offset="1" stop-color="#CCD5ED"/>
</linearGradient>
<linearGradient id="paint109_linear_3_650" x1="62.3191" y1="284.013" x2="71.6025" y2="246.839" gradientUnits="userSpaceOnUse">
<stop stop-color="#F6F6F6"/>
<stop offset="1" stop-color="#CCD5ED"/>
</linearGradient>
<linearGradient id="paint110_linear_3_650" x1="48.3432" y1="247.185" x2="39.9324" y2="265.41" gradientUnits="userSpaceOnUse">
<stop stop-color="#F6F6F6"/>
<stop offset="1" stop-color="#CCD5ED"/>
</linearGradient>
<linearGradient id="paint111_linear_3_650" x1="-14.9318" y1="246.738" x2="13.8968" y2="287.576" gradientUnits="userSpaceOnUse">
<stop stop-color="#F6F6F6"/>
<stop offset="1" stop-color="#CCD5ED"/>
</linearGradient>
<linearGradient id="paint112_linear_3_650" x1="44.438" y1="257.21" x2="76.295" y2="273.346" gradientUnits="userSpaceOnUse">
<stop stop-color="#F6F6F6"/>
<stop offset="1" stop-color="#CCD5ED"/>
</linearGradient>
<linearGradient id="paint113_linear_3_650" x1="16.8747" y1="228.343" x2="15.9168" y2="264.205" gradientUnits="userSpaceOnUse">
<stop stop-color="#F6F6F6"/>
<stop offset="1" stop-color="#CCD5ED"/>
</linearGradient>
<linearGradient id="paint114_linear_3_650" x1="62.3188" y1="256.542" x2="71.6024" y2="219.368" gradientUnits="userSpaceOnUse">
<stop stop-color="#F6F6F6"/>
<stop offset="1" stop-color="#CCD5ED"/>
</linearGradient>
<linearGradient id="paint115_linear_3_650" x1="48.3432" y1="219.713" x2="39.9324" y2="237.939" gradientUnits="userSpaceOnUse">
<stop stop-color="#F6F6F6"/>
<stop offset="1" stop-color="#CCD5ED"/>
</linearGradient>
<linearGradient id="paint116_linear_3_650" x1="-14.9318" y1="219.267" x2="13.8968" y2="260.105" gradientUnits="userSpaceOnUse">
<stop stop-color="#F6F6F6"/>
<stop offset="1" stop-color="#CCD5ED"/>
</linearGradient>
<linearGradient id="paint117_linear_3_650" x1="44.438" y1="229.739" x2="76.295" y2="245.875" gradientUnits="userSpaceOnUse">
<stop stop-color="#F6F6F6"/>
<stop offset="1" stop-color="#CCD5ED"/>
</linearGradient>
<linearGradient id="paint118_linear_3_650" x1="16.8749" y1="200.872" x2="15.917" y2="236.734" gradientUnits="userSpaceOnUse">
<stop stop-color="#F6F6F6"/>
<stop offset="1" stop-color="#CCD5ED"/>
</linearGradient>
<linearGradient id="paint119_linear_3_650" x1="62.3187" y1="229.07" x2="71.6023" y2="191.896" gradientUnits="userSpaceOnUse">
<stop stop-color="#F6F6F6"/>
<stop offset="1" stop-color="#CCD5ED"/>
</linearGradient>
<linearGradient id="paint120_linear_3_650" x1="48.3432" y1="192.242" x2="39.9324" y2="210.467" gradientUnits="userSpaceOnUse">
<stop stop-color="#F6F6F6"/>
<stop offset="1" stop-color="#CCD5ED"/>
</linearGradient>
<linearGradient id="paint121_linear_3_650" x1="47.1223" y1="195.557" x2="39.9913" y2="186.131" gradientUnits="userSpaceOnUse">
<stop stop-color="#F6F6F6"/>
<stop offset="1" stop-color="#CCD5ED"/>
</linearGradient>
<linearGradient id="paint122_linear_3_650" x1="-15.0289" y1="189.649" x2="29.828" y2="226.165" gradientUnits="userSpaceOnUse">
<stop stop-color="#F6F6F6"/>
<stop offset="1" stop-color="#CCD5ED"/>
</linearGradient>
<linearGradient id="paint123_linear_3_650" x1="43.0731" y1="201.154" x2="81.5735" y2="212.361" gradientUnits="userSpaceOnUse">
<stop stop-color="#F6F6F6"/>
<stop offset="1" stop-color="#CCD5ED"/>
</linearGradient>
<linearGradient id="paint124_linear_3_650" x1="16.875" y1="159.666" x2="15.9171" y2="195.528" gradientUnits="userSpaceOnUse">
<stop stop-color="#F6F6F6"/>
<stop offset="1" stop-color="#CCD5ED"/>
</linearGradient>
<linearGradient id="paint125_linear_3_650" x1="62.3188" y1="187.865" x2="71.6024" y2="150.691" gradientUnits="userSpaceOnUse">
<stop stop-color="#F6F6F6"/>
<stop offset="1" stop-color="#CCD5ED"/>
</linearGradient>
<linearGradient id="paint126_linear_3_650" x1="47.1224" y1="154.352" x2="39.9914" y2="144.925" gradientUnits="userSpaceOnUse">
<stop stop-color="#F6F6F6"/>
<stop offset="1" stop-color="#CCD5ED"/>
</linearGradient>
<linearGradient id="paint127_linear_3_650" x1="84.4424" y1="212.69" x2="84.0621" y2="217.637" gradientUnits="userSpaceOnUse">
<stop stop-color="#4790CD"/>
<stop offset="1" stop-color="#DA62A5"/>
</linearGradient>
<linearGradient id="paint128_linear_3_650" x1="89.0008" y1="217.351" x2="91.2628" y2="217.037" gradientUnits="userSpaceOnUse">
<stop stop-color="#4790CD"/>
<stop offset="1" stop-color="#DA62A5"/>
</linearGradient>
<linearGradient id="paint129_linear_3_650" x1="85.6774" y1="209.717" x2="85.6774" y2="212.58" gradientUnits="userSpaceOnUse">
<stop stop-color="#4790CD"/>
<stop offset="1" stop-color="#DA62A5"/>
</linearGradient>
<linearGradient id="paint130_linear_3_650" x1="77.4196" y1="216.483" x2="77.0392" y2="221.43" gradientUnits="userSpaceOnUse">
<stop stop-color="#4790CD"/>
<stop offset="1" stop-color="#DA62A5"/>
</linearGradient>
<linearGradient id="paint131_linear_3_650" x1="81.9773" y1="221.144" x2="84.2394" y2="220.831" gradientUnits="userSpaceOnUse">
<stop stop-color="#4790CD"/>
<stop offset="1" stop-color="#DA62A5"/>
</linearGradient>
<linearGradient id="paint132_linear_3_650" x1="78.654" y1="209.717" x2="78.654" y2="212.58" gradientUnits="userSpaceOnUse">
<stop stop-color="#4790CD"/>
<stop offset="1" stop-color="#DA62A5"/>
</linearGradient>
<linearGradient id="paint133_linear_3_650" x1="61.468" y1="253.658" x2="61.0876" y2="258.606" gradientUnits="userSpaceOnUse">
<stop stop-color="#4790CD"/>
<stop offset="1" stop-color="#DA62A5"/>
</linearGradient>
<linearGradient id="paint134_linear_3_650" x1="66.0259" y1="258.32" x2="68.2879" y2="258.007" gradientUnits="userSpaceOnUse">
<stop stop-color="#4790CD"/>
<stop offset="1" stop-color="#DA62A5"/>
</linearGradient>
<linearGradient id="paint135_linear_3_650" x1="62.7026" y1="250.686" x2="62.7026" y2="253.548" gradientUnits="userSpaceOnUse">
<stop stop-color="#4790CD"/>
<stop offset="1" stop-color="#DA62A5"/>
</linearGradient>
<linearGradient id="paint136_linear_3_650" x1="54.4449" y1="257.451" x2="54.0645" y2="262.398" gradientUnits="userSpaceOnUse">
<stop stop-color="#4790CD"/>
<stop offset="1" stop-color="#DA62A5"/>
</linearGradient>
<linearGradient id="paint137_linear_3_650" x1="59.0029" y1="262.111" x2="61.265" y2="261.798" gradientUnits="userSpaceOnUse">
<stop stop-color="#4790CD"/>
<stop offset="1" stop-color="#DA62A5"/>
</linearGradient>
<linearGradient id="paint138_linear_3_650" x1="55.6794" y1="250.686" x2="55.6794" y2="253.548" gradientUnits="userSpaceOnUse">
<stop stop-color="#4790CD"/>
<stop offset="1" stop-color="#DA62A5"/>
</linearGradient>
<linearGradient id="paint139_linear_3_650" x1="5.2796" y1="214.056" x2="5.65983" y2="219.003" gradientUnits="userSpaceOnUse">
<stop stop-color="#4790CD"/>
<stop offset="1" stop-color="#DA62A5"/>
</linearGradient>
<linearGradient id="paint140_linear_3_650" x1="8.46672" y1="212.384" x2="6.20467" y2="212.072" gradientUnits="userSpaceOnUse">
<stop stop-color="#4790CD"/>
<stop offset="1" stop-color="#DA62A5"/>
</linearGradient>
<linearGradient id="paint141_linear_3_650" x1="8.46994" y1="210.55" x2="8.46994" y2="213.412" gradientUnits="userSpaceOnUse">
<stop stop-color="#4790CD"/>
<stop offset="1" stop-color="#DA62A5"/>
</linearGradient>
<linearGradient id="paint142_linear_3_650" x1="12.3028" y1="217.849" x2="12.683" y2="222.796" gradientUnits="userSpaceOnUse">
<stop stop-color="#4790CD"/>
<stop offset="1" stop-color="#DA62A5"/>
</linearGradient>
<linearGradient id="paint143_linear_3_650" x1="15.4901" y1="216.178" x2="13.2279" y2="215.865" gradientUnits="userSpaceOnUse">
<stop stop-color="#4790CD"/>
<stop offset="1" stop-color="#DA62A5"/>
</linearGradient>
<linearGradient id="paint144_linear_3_650" x1="15.4933" y1="210.55" x2="15.4933" y2="213.412" gradientUnits="userSpaceOnUse">
<stop stop-color="#4790CD"/>
<stop offset="1" stop-color="#DA62A5"/>
</linearGradient>
<linearGradient id="paint145_linear_3_650" x1="28.2542" y1="255.024" x2="28.6345" y2="259.972" gradientUnits="userSpaceOnUse">
<stop stop-color="#4790CD"/>
<stop offset="1" stop-color="#DA62A5"/>
</linearGradient>
<linearGradient id="paint146_linear_3_650" x1="31.4416" y1="253.354" x2="29.1794" y2="253.04" gradientUnits="userSpaceOnUse">
<stop stop-color="#4790CD"/>
<stop offset="1" stop-color="#DA62A5"/>
</linearGradient>
<linearGradient id="paint147_linear_3_650" x1="31.4447" y1="251.518" x2="31.4447" y2="254.381" gradientUnits="userSpaceOnUse">
<stop stop-color="#4790CD"/>
<stop offset="1" stop-color="#DA62A5"/>
</linearGradient>
<linearGradient id="paint148_linear_3_650" x1="35.2777" y1="258.817" x2="35.6581" y2="263.764" gradientUnits="userSpaceOnUse">
<stop stop-color="#4790CD"/>
<stop offset="1" stop-color="#DA62A5"/>
</linearGradient>
<linearGradient id="paint149_linear_3_650" x1="38.4647" y1="257.145" x2="36.2026" y2="256.832" gradientUnits="userSpaceOnUse">
<stop stop-color="#4790CD"/>
<stop offset="1" stop-color="#DA62A5"/>
</linearGradient>
<linearGradient id="paint150_linear_3_650" x1="38.4682" y1="251.518" x2="38.4682" y2="254.381" gradientUnits="userSpaceOnUse">
<stop stop-color="#4790CD"/>
<stop offset="1" stop-color="#DA62A5"/>
</linearGradient>
<linearGradient id="paint151_linear_3_650" x1="37.2889" y1="338.492" x2="37.2156" y2="335.727" gradientUnits="userSpaceOnUse">
<stop stop-color="#F6F6F6"/>
<stop offset="1" stop-color="#CCD5ED"/>
</linearGradient>
<linearGradient id="paint152_linear_3_650" x1="21.13" y1="289.159" x2="-7.03873" y2="308.726" gradientUnits="userSpaceOnUse">
<stop stop-color="#F6F6F6"/>
<stop offset="1" stop-color="#CCD5ED"/>
</linearGradient>
<linearGradient id="paint153_linear_3_650" x1="19.7744" y1="299.871" x2="37.501" y2="299.871" gradientUnits="userSpaceOnUse">
<stop stop-color="#F6F6F6"/>
<stop offset="1" stop-color="#CCD5ED"/>
</linearGradient>
<linearGradient id="paint154_linear_3_650" x1="8.16337" y1="294.321" x2="8.14583" y2="302.392" gradientUnits="userSpaceOnUse">
<stop stop-color="#4790CD"/>
<stop offset="1" stop-color="#EA6FAA"/>
</linearGradient>
<linearGradient id="paint155_linear_3_650" x1="27.5919" y1="216.338" x2="14.6636" y2="218.536" gradientUnits="userSpaceOnUse">
<stop stop-color="#4790CD"/>
<stop offset="1" stop-color="#0080FF"/>
</linearGradient>
<linearGradient id="paint156_linear_3_650" x1="15.3017" y1="261.7" x2="31.9514" y2="295.791" gradientUnits="userSpaceOnUse">
<stop stop-color="#0080FF"/>
<stop offset="1" stop-color="#0080FF"/>
</linearGradient>
<linearGradient id="paint157_linear_3_650" x1="26.6988" y1="291.788" x2="40.7895" y2="295.209" gradientUnits="userSpaceOnUse">
<stop stop-color="#0080FF"/>
<stop offset="1" stop-color="#0080FF"/>
</linearGradient>
<linearGradient id="paint158_linear_3_650" x1="282.182" y1="310.194" x2="282.182" y2="330.277" gradientUnits="userSpaceOnUse">
<stop stop-color="#F6F6F6"/>
<stop offset="1" stop-color="#CCD5ED"/>
</linearGradient>
<linearGradient id="paint159_linear_3_650" x1="316.096" y1="281.482" x2="324.522" y2="273.805" gradientUnits="userSpaceOnUse">
<stop stop-color="#FAD6C7"/>
<stop offset="1" stop-color="#E4857F"/>
</linearGradient>
<linearGradient id="paint160_linear_3_650" x1="317.617" y1="332.339" x2="325.528" y2="330.801" gradientUnits="userSpaceOnUse">
<stop stop-color="#FAD6C7"/>
<stop offset="1" stop-color="#E4857F"/>
</linearGradient>
<linearGradient id="paint161_linear_3_650" x1="322.13" y1="312.364" x2="335.273" y2="300.787" gradientUnits="userSpaceOnUse">
<stop stop-color="#FAD6C7"/>
<stop offset="1" stop-color="#E4857F"/>
</linearGradient>
<linearGradient id="paint162_linear_3_650" x1="325.165" y1="304.678" x2="330.053" y2="264.207" gradientUnits="userSpaceOnUse">
<stop stop-color="#F6F6F6"/>
<stop offset="1" stop-color="#CCD5ED"/>
</linearGradient>
<linearGradient id="paint163_linear_3_650" x1="325.406" y1="262.705" x2="323.474" y2="249.365" gradientUnits="userSpaceOnUse">
<stop stop-color="#FAD6C7"/>
<stop offset="1" stop-color="#E4857F"/>
</linearGradient>
<linearGradient id="paint164_linear_3_650" x1="337.231" y1="277.092" x2="336.111" y2="266.993" gradientUnits="userSpaceOnUse">
<stop stop-color="#FAD6C7"/>
<stop offset="1" stop-color="#E4857F"/>
</linearGradient>
<linearGradient id="paint165_linear_3_650" x1="321.379" y1="271.701" x2="321.502" y2="266.538" gradientUnits="userSpaceOnUse">
<stop stop-color="#F6F6F6"/>
<stop offset="1" stop-color="#CCD5ED"/>
</linearGradient>
<linearGradient id="paint166_linear_3_650" x1="199.535" y1="332.544" x2="199.535" y2="350.87" gradientUnits="userSpaceOnUse">
<stop stop-color="#F6F6F6"/>
<stop offset="1" stop-color="#CCD5ED"/>
</linearGradient>
<linearGradient id="paint167_linear_3_650" x1="235.383" y1="359.386" x2="243.542" y2="355.152" gradientUnits="userSpaceOnUse">
<stop stop-color="#FAD6C7"/>
<stop offset="1" stop-color="#E4857F"/>
</linearGradient>
<linearGradient id="paint168_linear_3_650" x1="241.917" y1="360.535" x2="250.076" y2="356.301" gradientUnits="userSpaceOnUse">
<stop stop-color="#FAD6C7"/>
<stop offset="1" stop-color="#E4857F"/>
</linearGradient>
<linearGradient id="paint169_linear_3_650" x1="181.575" y1="283.504" x2="180.796" y2="345.609" gradientUnits="userSpaceOnUse">
<stop stop-color="#FAD6C7"/>
<stop offset="1" stop-color="#E4857F"/>
</linearGradient>
<linearGradient id="paint170_linear_3_650" x1="215.629" y1="287.347" x2="214.336" y2="325.327" gradientUnits="userSpaceOnUse">
<stop stop-color="#4790CD"/>
<stop offset="1" stop-color="#DA62A5"/>
</linearGradient>
<linearGradient id="paint171_linear_3_650" x1="243.574" y1="314.087" x2="246.294" y2="285.498" gradientUnits="userSpaceOnUse">
<stop stop-color="#F6F6F6"/>
<stop offset="1" stop-color="#CCD5ED"/>
</linearGradient>
<linearGradient id="paint172_linear_3_650" x1="236.009" y1="286.512" x2="235.964" y2="284.597" gradientUnits="userSpaceOnUse">
<stop stop-color="#FAD6C7"/>
<stop offset="1" stop-color="#E4857F"/>
</linearGradient>
<linearGradient id="paint173_linear_3_650" x1="235.887" y1="283.918" x2="236.128" y2="281.072" gradientUnits="userSpaceOnUse">
<stop stop-color="#FAD6C7"/>
<stop offset="1" stop-color="#E4857F"/>
</linearGradient>
<linearGradient id="paint174_linear_3_650" x1="212.52" y1="288.87" x2="210.452" y2="356.749" gradientUnits="userSpaceOnUse">
<stop stop-color="#FAD6C7"/>
<stop offset="1" stop-color="#E4857F"/>
</linearGradient>
<linearGradient id="paint175_linear_3_650" x1="228.887" y1="288.51" x2="227.52" y2="325.738" gradientUnits="userSpaceOnUse">
<stop stop-color="#4790CD"/>
<stop offset="1" stop-color="#DA62A5"/>
</linearGradient>
<linearGradient id="paint176_linear_3_650" x1="211.473" y1="263.785" x2="183.137" y2="269.421" gradientUnits="userSpaceOnUse">
<stop stop-color="#0080FF"/>
<stop offset="1" stop-color="#0080FF"/>
</linearGradient>
<linearGradient id="paint177_linear_3_650" x1="187.799" y1="271.803" x2="184.898" y2="271.688" gradientUnits="userSpaceOnUse">
<stop stop-color="#4790CD"/>
<stop offset="1" stop-color="#0080FF"/>
</linearGradient>
<linearGradient id="paint178_linear_3_650" x1="187.21" y1="274.709" x2="184.222" y2="274.453" gradientUnits="userSpaceOnUse">
<stop stop-color="#4790CD"/>
<stop offset="1" stop-color="#0080FF"/>
</linearGradient>
<linearGradient id="paint179_linear_3_650" x1="188.568" y1="271.682" x2="185.645" y2="271.533" gradientUnits="userSpaceOnUse">
<stop stop-color="#4790CD"/>
<stop offset="1" stop-color="#0080FF"/>
</linearGradient>
<linearGradient id="paint180_linear_3_650" x1="190.163" y1="268.085" x2="187.281" y2="267.996" gradientUnits="userSpaceOnUse">
<stop stop-color="#4790CD"/>
<stop offset="1" stop-color="#0080FF"/>
</linearGradient>
<linearGradient id="paint181_linear_3_650" x1="203.087" y1="263.443" x2="202.893" y2="267.107" gradientUnits="userSpaceOnUse">
<stop stop-color="#4790CD"/>
<stop offset="1" stop-color="#0080FF"/>
</linearGradient>
</defs>
</svg>
